<svg id="svg" version="1.1" xmlns="http://www.w3.org/2000/svg" xmlns:xlink="http://www.w3.org/1999/xlink" width="400" height="247.51718869365928" viewBox="0, 0, 400,247.51718869365928"><g id="svgg"><path id="path0" d="M0.000 123.750 L 0.000 247.500 200.000 247.500 L 400.000 247.500 400.000 123.750 L 400.000 0.000 200.000 0.000 L 0.000 0.000 0.000 123.750 M84.386 1.867 L 84.855 2.624 84.839 21.491 C 84.821 43.151,84.731 41.752,86.241 43.254 C 86.890 43.900,87.443 44.240,88.646 44.736 C 93.136 46.586,95.881 49.851,97.406 55.155 C 98.150 57.741,97.588 58.179,92.667 58.844 C 86.261 59.711,73.727 59.268,70.872 58.076 C 69.683 57.579,69.661 56.333,70.788 53.333 C 72.588 48.543,75.153 45.781,78.750 44.758 C 80.615 44.228,81.691 43.383,82.366 41.917 L 82.750 41.083 82.776 21.900 L 82.803 2.716 83.175 1.852 C 83.608 0.844,83.753 0.846,84.386 1.867 M43.541 29.792 L 43.583 58.250 44.250 58.294 C 45.278 58.363,45.602 58.468,46.112 58.895 C 46.388 59.127,47.169 59.437,48.000 59.645 C 53.666 61.066,57.932 65.275,60.013 71.500 C 61.082 74.696,60.884 76.328,59.316 77.249 C 58.785 77.561,58.445 77.582,53.806 77.583 C 48.379 77.583,48.362 77.586,49.162 78.412 C 49.883 79.156,49.723 79.363,48.001 79.906 C 44.547 80.997,41.933 81.105,39.750 80.246 C 38.961 79.936,38.125 79.754,37.167 79.685 C 35.180 79.542,34.940 79.298,35.746 78.241 L 36.158 77.700 34.121 77.589 C 33.000 77.527,30.771 77.501,29.167 77.530 C 24.365 77.618,23.355 76.412,24.584 72.060 C 26.438 65.499,31.169 60.724,36.986 59.544 C 37.783 59.383,38.424 59.143,38.721 58.894 C 39.231 58.467,39.556 58.363,40.583 58.294 L 41.250 58.250 41.292 29.792 L 41.334 1.333 42.417 1.333 L 43.499 1.333 43.541 29.792 M303.750 25.184 C 322.262 27.444,329.949 50.026,316.568 62.838 C 301.367 77.394,276.615 64.582,279.584 43.694 C 281.213 32.233,292.249 23.780,303.750 25.184 M300.870 29.593 L 300.500 29.852 300.500 38.567 C 300.500 46.798,300.517 47.297,300.805 47.558 C 301.077 47.804,301.766 47.833,307.188 47.833 C 313.598 47.833,313.667 47.825,313.667 47.070 C 313.667 46.366,313.463 46.340,307.652 46.294 L 302.083 46.250 302.041 38.000 C 302.003 30.480,301.974 29.732,301.718 29.542 C 301.360 29.277,301.318 29.280,300.870 29.593 M325.362 79.912 C 327.768 80.331,329.707 81.218,333.583 83.670 C 337.068 85.874,341.874 88.503,348.500 91.828 C 353.113 94.144,354.384 94.861,355.186 95.598 C 356.102 96.440,357.069 96.948,359.654 97.947 C 363.345 99.374,365.685 101.161,366.833 103.430 L 367.417 104.583 367.525 118.833 L 367.633 133.083 368.523 133.833 C 379.994 143.492,385.126 158.295,381.176 170.325 C 379.030 176.861,372.995 185.967,368.689 189.167 L 367.680 189.917 367.673 209.534 L 367.667 229.152 368.208 229.238 C 368.506 229.285,369.800 229.350,371.083 229.383 C 373.471 229.445,374.724 229.721,375.695 230.401 C 376.044 230.645,375.204 230.666,365.245 230.661 C 353.465 230.656,353.771 230.684,355.990 229.796 C 356.828 229.461,357.263 229.420,360.550 229.368 L 364.184 229.310 364.342 228.894 C 364.755 227.807,364.436 193.092,364.014 193.253 C 363.869 193.309,361.988 194.355,359.833 195.578 C 352.446 199.771,347.825 202.068,343.875 203.511 L 342.333 204.074 342.333 216.848 C 342.333 224.764,342.269 229.959,342.165 230.510 C 341.854 232.149,340.902 232.564,339.169 231.818 L 338.359 231.470 338.291 209.443 C 338.216 185.324,338.276 186.606,337.173 185.609 C 336.213 184.741,335.535 184.668,334.611 185.332 L 333.870 185.863 324.060 185.925 C 314.211 185.987,311.252 185.886,308.583 185.395 C 305.348 184.800,304.686 184.887,304.194 185.972 C 303.940 186.531,303.914 188.443,303.881 208.333 C 303.855 224.314,303.795 230.177,303.655 230.439 C 303.107 231.462,300.568 231.395,300.005 230.343 C 299.894 230.135,299.833 227.082,299.833 221.678 L 299.833 213.333 299.356 213.333 C 299.093 213.333,296.412 213.597,293.397 213.920 C 290.383 214.243,286.717 214.621,285.250 214.759 C 281.044 215.157,269.133 215.336,251.250 215.270 L 234.750 215.210 232.417 214.770 C 231.133 214.528,229.427 214.282,228.625 214.223 L 227.167 214.117 227.167 215.565 C 227.167 217.340,227.398 218.489,228.689 223.122 C 230.079 228.111,230.203 228.822,230.186 231.667 C 230.178 232.996,230.212 234.349,230.261 234.673 L 230.351 235.262 231.550 235.449 C 232.532 235.603,233.355 235.940,236.083 237.306 C 239.520 239.028,240.310 239.331,241.367 239.332 C 243.263 239.335,244.800 240.209,245.188 241.506 C 245.481 242.482,245.363 242.588,243.639 242.905 C 236.519 244.212,225.306 243.733,223.715 242.055 C 222.637 240.918,222.769 239.885,224.179 238.417 L 225.172 237.383 224.727 235.456 C 224.232 233.311,223.784 232.881,222.895 233.695 C 222.152 234.376,221.124 234.526,218.583 234.326 L 216.250 234.142 213.917 234.754 C 208.318 236.223,207.042 235.060,206.247 227.758 C 206.097 226.387,205.726 223.912,205.422 222.258 C 205.118 220.604,204.663 217.951,204.411 216.363 C 203.843 212.781,203.972 212.906,199.746 211.830 C 198.125 211.416,197.151 211.269,193.544 210.894 C 192.416 210.776,191.809 211.137,190.817 212.515 C 189.749 213.998,184.687 220.485,183.295 222.154 C 181.945 223.772,178.158 227.605,176.945 228.581 L 176.140 229.229 175.695 228.657 C 172.223 224.197,166.490 218.348,165.583 218.340 C 165.442 218.339,164.445 219.087,162.105 220.949 L 161.645 221.315 163.251 225.616 C 164.134 227.981,165.192 230.806,165.603 231.894 C 166.201 233.479,166.340 234.041,166.300 234.727 L 166.250 235.583 165.481 235.732 C 164.238 235.972,164.096 235.867,160.642 232.128 C 150.671 221.335,149.847 218.562,156.249 217.350 C 158.513 216.921,160.307 215.481,164.219 210.953 C 165.794 209.129,167.177 207.507,167.292 207.349 C 167.535 207.012,163.874 205.929,154.333 203.514 C 145.039 201.162,139.497 199.503,135.149 197.771 C 134.085 197.347,133.016 197.000,132.774 197.000 L 132.333 197.000 132.333 212.296 C 132.333 230.269,132.285 230.977,130.977 232.077 C 129.989 232.909,127.727 232.748,124.626 231.626 L 124.168 231.460 124.126 216.272 L 124.083 201.083 108.542 201.041 L 93.000 200.998 93.000 215.384 C 93.000 231.842,93.184 230.261,91.250 230.447 C 87.088 230.846,85.987 230.555,85.187 228.848 L 84.751 227.917 84.810 210.417 C 84.843 200.792,84.898 192.869,84.933 192.810 C 85.379 192.063,90.143 191.598,95.083 191.818 C 97.375 191.921,99.662 191.946,100.167 191.875 L 101.083 191.745 101.069 191.035 C 101.050 190.154,100.573 189.613,98.979 188.666 L 97.852 187.996 96.782 188.347 L 95.712 188.699 93.231 187.843 C 91.867 187.373,88.650 186.349,86.083 185.568 C 78.888 183.378,74.558 181.800,71.528 180.264 L 70.639 179.814 69.695 180.520 C 68.408 181.483,66.289 183.544,65.383 184.715 L 64.637 185.680 64.658 188.345 C 64.678 190.831,64.714 191.113,65.184 192.547 C 67.845 200.649,67.441 204.304,63.420 208.479 L 61.715 210.250 61.611 213.917 C 61.276 225.678,57.914 230.729,50.000 231.358 C 40.002 232.152,36.094 230.013,33.666 222.417 C 32.548 218.920,31.999 213.162,32.514 210.333 C 32.804 208.740,32.765 208.474,32.073 207.294 C 31.275 205.931,31.254 205.740,31.670 203.648 C 32.807 197.939,30.636 192.915,25.699 189.833 C 22.038 187.548,22.264 187.952,22.256 183.674 C 22.249 179.713,22.372 179.239,23.842 177.574 C 25.459 175.742,25.480 175.025,23.998 172.250 C 20.963 166.570,21.966 163.815,27.305 163.167 C 30.164 162.820,30.811 162.354,31.473 160.164 C 31.680 159.478,31.955 158.629,32.084 158.277 L 32.318 157.637 30.820 155.610 C 21.940 143.591,19.750 139.678,18.177 133.018 C 15.145 120.176,23.474 105.279,37.270 98.869 C 46.238 94.703,64.149 91.986,77.167 92.818 C 119.563 95.528,135.617 97.852,184.333 108.332 C 185.662 108.618,187.425 108.904,188.250 108.968 L 189.750 109.083 189.324 109.517 C 188.976 109.871,188.680 109.972,187.706 110.068 C 186.912 110.146,186.386 110.292,186.132 110.504 C 185.444 111.077,191.578 110.996,192.426 110.421 C 193.228 109.877,193.975 109.754,194.996 109.999 C 196.730 110.415,195.755 111.000,193.326 111.000 C 191.228 111.000,191.183 111.474,193.252 111.781 C 196.229 112.222,197.422 111.960,197.927 110.752 C 198.392 109.638,198.158 109.222,196.856 108.850 C 196.440 108.731,196.098 108.522,196.056 108.363 C 196.015 108.209,195.563 107.821,195.050 107.500 C 192.619 105.980,192.163 103.747,193.328 99.083 C 194.130 95.873,193.986 95.209,192.095 93.367 C 188.134 89.507,191.136 83.682,197.094 83.669 C 201.087 83.660,202.742 84.984,203.176 88.532 C 203.496 91.150,204.255 92.071,206.666 92.769 C 209.602 93.620,211.000 95.147,211.000 97.505 C 211.000 97.853,211.231 99.325,211.513 100.777 C 213.027 108.562,210.852 113.121,206.353 111.596 C 204.784 111.064,204.221 111.248,204.131 112.321 L 204.083 112.892 206.083 113.509 C 207.183 113.849,209.471 114.542,211.167 115.049 C 212.862 115.556,215.750 116.421,217.583 116.972 C 219.417 117.522,222.342 118.399,224.083 118.921 C 225.825 119.442,228.450 120.230,229.917 120.671 C 231.383 121.113,234.121 121.935,236.000 122.499 C 240.741 123.922,244.186 125.031,246.865 125.996 C 253.839 128.507,252.839 128.492,268.667 126.342 C 273.118 125.737,282.551 124.594,288.583 123.927 C 309.865 121.577,327.035 121.220,340.750 122.841 C 351.408 124.102,353.631 124.726,361.530 128.682 C 362.978 129.407,364.201 130.000,364.248 130.000 C 364.295 130.000,364.333 124.337,364.333 117.415 L 364.333 104.830 363.458 103.851 C 362.777 103.089,362.289 102.735,361.250 102.253 C 359.242 101.319,357.073 100.045,355.583 98.922 C 354.669 98.235,353.773 97.738,352.749 97.352 C 347.106 95.228,341.843 92.450,335.667 88.338 C 328.914 83.843,324.879 82.767,320.000 84.164 C 317.750 84.808,313.167 87.282,313.167 87.852 C 313.167 87.949,313.315 88.608,313.496 89.317 C 315.487 97.114,312.272 104.574,305.348 108.224 L 303.853 109.012 302.801 108.570 C 295.940 105.684,291.090 100.949,288.345 94.454 L 287.656 92.825 288.232 91.495 C 291.624 83.668,300.854 79.633,307.507 83.069 C 310.999 84.872,313.081 84.731,316.189 82.481 C 317.850 81.279,319.902 80.263,321.167 80.016 C 321.671 79.917,322.233 79.807,322.417 79.771 C 323.118 79.633,324.006 79.675,325.362 79.912 M254.000 128.500 C 253.670 128.606,253.653 128.633,253.917 128.633 C 254.100 128.633,254.438 128.573,254.667 128.500 C 254.997 128.394,255.014 128.367,254.750 128.367 C 254.567 128.367,254.229 128.427,254.000 128.500 M328.008 135.062 C 327.299 136.928,327.251 137.435,327.230 143.250 C 327.219 146.367,327.127 151.092,327.024 153.750 C 326.743 161.048,326.739 161.653,326.898 170.000 C 327.052 178.003,326.969 180.184,326.394 183.226 C 326.095 184.810,325.714 184.600,329.128 184.729 L 332.007 184.838 332.156 184.446 C 333.426 181.103,332.293 157.912,330.399 148.500 C 330.158 147.303,330.022 146.190,330.079 145.884 C 330.228 145.084,329.862 142.510,329.489 141.733 C 329.204 141.140,329.165 140.733,329.190 138.650 C 329.221 136.158,329.066 135.372,328.445 134.857 C 328.207 134.659,328.151 134.685,328.008 135.062 M317.330 139.542 C 316.966 140.383,316.953 140.580,316.984 144.688 C 317.017 149.073,316.959 149.500,316.327 149.500 C 316.245 149.500,316.155 151.347,316.126 153.625 C 316.076 157.607,316.047 157.918,315.297 162.583 C 313.278 175.139,313.182 175.916,313.059 180.568 L 312.945 184.886 314.926 184.767 C 317.292 184.626,316.940 185.023,317.159 182.249 C 317.260 180.966,317.637 177.854,317.996 175.333 C 318.980 168.428,319.066 167.522,319.075 164.000 L 319.083 160.750 318.625 160.299 C 318.081 159.764,318.078 159.738,318.479 158.715 C 319.117 157.087,319.066 151.088,318.403 149.808 C 318.030 149.086,317.788 144.935,317.922 141.542 C 318.046 138.412,317.953 138.099,317.330 139.542 M321.905 189.388 C 322.214 189.613,322.350 224.857,322.056 228.303 C 321.896 230.179,321.033 231.144,319.879 230.738 C 318.964 230.416,319.000 231.314,319.043 209.777 L 319.083 189.804 319.477 189.485 C 319.946 189.105,321.437 189.045,321.905 189.388 " stroke="none" fill="#55959d" fill-rule="evenodd"></path><path id="path1" d="M83.449 1.557 C 82.828 2.505,82.816 2.918,82.836 22.050 C 82.855 38.818,82.829 40.841,82.588 41.627 C 82.115 43.170,80.988 44.126,78.732 44.896 C 74.710 46.270,72.528 48.753,70.685 54.053 C 69.868 56.402,69.825 57.021,70.441 57.591 C 72.793 59.771,95.266 59.692,97.253 57.497 C 97.731 56.969,97.511 55.409,96.656 53.262 C 94.999 49.101,92.946 46.925,88.798 44.931 C 87.015 44.073,86.400 43.687,85.884 43.101 C 84.674 41.727,84.753 43.180,84.718 21.773 L 84.686 2.462 84.257 1.815 C 83.752 1.051,83.776 1.059,83.449 1.557 M41.500 29.879 L 41.500 58.258 42.042 58.534 C 42.340 58.686,42.752 58.858,42.958 58.916 C 43.165 58.975,43.333 59.123,43.333 59.246 C 43.333 60.098,45.103 60.610,45.894 59.988 C 46.774 59.295,46.113 58.592,44.410 58.410 L 43.333 58.295 43.333 29.897 L 43.333 1.500 42.417 1.500 L 41.500 1.500 41.500 29.879 M298.583 25.268 C 276.666 28.478,272.302 58.045,292.416 67.052 C 311.427 75.565,330.668 54.551,320.467 36.417 C 316.136 28.718,306.957 24.042,298.583 25.268 M301.905 29.595 C 302.136 29.826,302.167 30.821,302.167 38.012 L 302.167 46.167 307.667 46.167 C 313.938 46.167,314.333 46.255,313.661 47.511 C 313.448 47.908,301.092 48.025,300.700 47.633 C 300.332 47.265,300.421 29.729,300.792 29.513 C 301.214 29.267,301.606 29.296,301.905 29.595 M39.788 58.494 C 39.442 58.561,38.968 58.795,38.735 59.014 L 38.310 59.414 38.746 59.789 C 39.653 60.569,40.642 60.489,41.063 59.602 C 41.641 58.384,41.406 58.180,39.788 58.494 M35.841 78.265 C 35.077 79.328,35.337 79.602,37.049 79.540 C 38.085 79.502,38.400 79.565,39.347 79.998 C 41.668 81.061,44.214 81.011,47.900 79.830 C 49.684 79.259,49.874 79.006,49.000 78.360 C 48.725 78.156,48.500 77.880,48.500 77.745 C 48.500 77.534,47.661 77.500,42.445 77.500 L 36.390 77.500 35.841 78.265 M322.138 79.996 C 319.876 80.400,318.819 80.869,316.333 82.577 C 313.321 84.646,310.764 84.976,308.186 83.628 L 306.997 83.007 307.328 83.656 C 307.743 84.469,308.231 84.817,310.373 85.824 C 311.314 86.266,312.265 86.824,312.487 87.064 C 312.982 87.598,313.055 87.600,313.719 87.103 C 319.243 82.974,325.990 82.401,331.579 85.586 C 332.300 85.997,332.916 86.333,332.947 86.333 C 332.978 86.333,334.071 87.055,335.376 87.937 C 337.909 89.647,340.027 90.980,341.917 92.050 C 343.653 93.033,348.188 95.358,348.667 95.509 C 348.896 95.582,349.844 95.977,350.774 96.387 C 351.704 96.797,352.873 97.251,353.372 97.396 C 353.902 97.551,354.585 97.921,355.015 98.288 C 356.260 99.352,357.987 100.429,360.250 101.551 L 362.417 102.625 362.548 102.138 C 362.722 101.497,363.086 101.381,363.769 101.748 C 364.682 102.240,365.088 103.113,364.826 104.024 C 364.746 104.304,364.631 110.282,364.571 117.308 C 364.511 124.335,364.439 130.108,364.412 130.138 C 364.385 130.168,362.651 129.353,360.560 128.326 C 354.357 125.279,352.619 124.693,347.250 123.842 C 338.336 122.429,332.411 122.000,321.833 122.001 C 310.800 122.002,304.931 122.372,287.333 124.173 C 283.232 124.593,270.899 126.122,263.917 127.076 C 260.983 127.477,257.871 127.895,257.000 128.005 C 256.129 128.115,255.214 128.309,254.967 128.436 C 254.719 128.563,254.194 128.658,253.800 128.648 L 253.083 128.629 254.000 128.417 C 254.504 128.300,254.874 128.196,254.821 128.185 C 254.768 128.175,253.883 128.015,252.855 127.830 C 250.989 127.494,249.676 127.096,245.147 125.494 C 243.829 125.028,241.512 124.270,240.000 123.810 C 236.282 122.678,219.144 117.524,215.417 116.417 C 203.017 112.732,203.759 112.998,203.899 112.297 C 204.133 111.128,204.710 110.950,206.473 111.502 C 209.347 112.403,210.675 111.503,211.445 108.134 C 211.972 105.830,211.993 104.052,211.520 101.809 C 211.334 100.924,211.130 99.518,211.067 98.684 L 210.952 97.167 210.471 97.167 C 209.701 97.167,206.790 98.799,205.367 100.029 C 204.517 100.763,201.800 102.028,200.883 102.116 C 198.792 102.316,198.422 103.051,199.333 105.193 C 200.343 107.567,200.011 108.167,197.685 108.167 C 196.007 108.167,195.865 108.318,197.144 108.743 C 198.105 109.062,198.373 109.500,198.168 110.412 C 197.841 111.859,196.822 112.281,194.350 111.994 C 192.070 111.729,191.690 111.805,192.667 112.331 C 193.354 112.702,193.661 112.743,196.333 112.828 C 199.185 112.918,199.269 112.931,200.083 113.410 C 200.832 113.850,201.106 113.910,202.780 113.992 C 204.863 114.094,205.457 114.355,205.723 115.281 C 205.807 115.573,206.636 116.564,207.731 117.681 C 210.044 120.041,211.476 121.960,214.187 126.333 C 215.352 128.212,217.166 131.063,218.219 132.667 C 219.272 134.271,220.568 136.371,221.100 137.333 C 224.441 143.380,229.130 149.188,235.027 154.583 C 236.640 156.060,236.631 156.240,234.836 158.145 C 233.241 159.839,233.355 159.796,230.750 159.685 C 228.480 159.588,223.241 157.849,220.074 156.140 C 218.066 155.057,216.051 155.111,214.656 156.285 C 213.312 157.416,213.251 158.657,214.341 162.750 C 214.609 163.758,215.271 166.458,215.811 168.750 C 216.352 171.042,217.141 174.379,217.564 176.167 C 217.987 177.954,218.478 180.129,218.656 181.000 C 218.833 181.871,219.215 183.546,219.505 184.722 L 220.032 186.861 219.694 187.222 C 218.648 188.339,218.938 189.246,220.525 189.819 C 221.006 189.993,221.300 191.045,222.484 196.833 C 222.755 198.162,223.220 200.304,223.516 201.593 L 224.055 203.937 223.611 204.590 C 222.846 205.716,223.224 206.686,224.529 206.948 C 225.030 207.048,224.961 206.828,225.661 210.550 C 226.094 212.851,226.088 213.073,225.572 213.750 C 224.811 214.748,225.236 215.784,226.533 216.092 C 226.978 216.197,226.983 216.189,227.033 215.224 L 227.083 214.250 228.214 214.201 C 228.936 214.169,230.263 214.320,231.881 214.617 L 234.417 215.083 257.500 215.073 C 283.011 215.063,281.668 215.108,292.624 213.891 C 296.496 213.460,299.721 213.165,299.790 213.235 C 299.860 213.304,299.943 217.109,299.976 221.689 L 300.035 230.016 300.430 230.486 C 300.890 231.032,301.709 231.220,302.578 230.980 C 303.760 230.654,303.673 232.381,303.713 208.396 C 303.748 187.645,303.763 186.720,304.062 186.035 C 304.607 184.789,305.154 184.655,307.640 185.160 C 310.435 185.728,313.141 185.830,323.772 185.773 L 333.960 185.718 334.480 185.347 C 334.766 185.144,335.000 184.926,335.000 184.864 C 335.000 184.801,329.544 184.750,322.875 184.750 C 307.320 184.750,308.573 185.367,309.327 178.083 C 309.724 174.247,309.817 168.741,309.510 167.186 C 309.060 164.899,309.299 164.598,310.649 165.750 C 311.713 166.659,311.763 166.664,311.893 165.875 C 312.408 162.758,311.254 154.171,310.085 152.429 C 309.381 151.379,308.453 148.841,308.227 147.347 C 308.153 146.860,307.934 146.408,307.580 146.014 C 306.687 145.017,305.914 142.833,306.454 142.833 C 307.121 142.833,308.631 144.629,308.778 145.596 C 308.845 146.037,309.187 146.657,309.828 147.500 C 311.035 149.087,312.123 150.958,312.586 152.246 C 313.100 153.674,315.096 157.734,315.414 157.998 C 316.017 158.498,316.085 158.018,316.027 153.672 L 315.972 149.526 316.402 149.244 L 316.833 148.962 316.835 144.606 C 316.837 140.366,316.847 140.227,317.234 139.395 C 317.923 137.916,317.949 138.054,318.034 143.629 C 318.106 148.317,318.149 148.983,318.418 149.500 C 319.197 150.999,319.415 156.960,318.750 158.577 C 318.345 159.562,318.447 160.333,318.981 160.333 C 319.521 160.333,320.820 155.924,320.916 153.761 C 320.955 152.905,321.245 149.965,321.561 147.227 C 322.131 142.284,322.136 142.195,322.164 134.335 C 322.195 125.521,322.141 126.174,322.803 126.645 C 323.762 127.328,323.901 127.902,324.018 131.667 C 324.107 134.509,324.202 135.433,324.583 137.167 C 324.887 138.547,325.040 139.728,325.038 140.667 C 325.037 141.446,325.073 143.743,325.119 145.772 L 325.202 149.460 326.017 149.841 C 327.137 150.366,327.082 150.667,327.091 143.861 C 327.098 137.645,327.140 137.131,327.787 135.292 C 328.128 134.324,328.207 134.317,328.789 135.197 C 329.241 135.880,329.250 135.944,329.265 138.495 C 329.277 140.611,329.331 141.174,329.554 141.515 C 329.894 142.035,330.358 145.414,330.160 145.934 C 330.081 146.141,330.086 146.551,330.170 146.861 C 330.794 149.159,331.432 154.030,332.001 160.833 C 332.105 162.071,332.232 163.370,332.285 163.721 L 332.380 164.359 333.332 162.888 C 334.353 161.312,337.235 159.165,336.929 160.208 C 335.552 164.912,335.168 168.745,335.167 177.780 L 335.167 184.643 336.046 184.899 C 337.488 185.318,338.333 186.597,338.333 188.360 L 338.333 189.000 339.089 189.000 C 340.448 189.000,341.397 189.634,341.832 190.833 C 342.218 191.895,342.233 203.821,341.849 204.247 C 341.186 204.984,341.167 205.339,341.166 217.150 C 341.165 230.581,341.164 230.584,339.056 231.124 L 338.417 231.287 339.212 231.653 C 340.308 232.157,341.262 232.079,341.733 231.446 C 342.081 230.979,342.084 230.893,342.130 217.528 L 342.176 204.080 345.040 202.940 C 346.615 202.312,349.170 201.168,350.718 200.396 C 353.615 198.951,353.968 198.763,357.500 196.779 C 358.646 196.135,360.146 195.293,360.833 194.907 C 361.521 194.521,362.559 193.934,363.141 193.603 C 364.091 193.062,364.451 192.916,364.524 193.042 C 364.538 193.065,364.594 201.015,364.649 210.710 L 364.750 228.336 365.333 228.026 C 366.472 227.421,366.716 226.821,366.601 224.917 C 366.546 224.000,366.498 196.972,366.494 164.855 L 366.487 106.460 366.827 105.808 C 368.054 103.454,365.149 100.398,359.400 97.998 C 356.498 96.786,355.760 96.383,354.700 95.430 C 354.089 94.880,352.684 94.120,345.471 90.442 C 340.981 88.153,338.807 87.015,338.583 86.836 C 338.492 86.762,338.004 86.479,337.500 86.207 C 336.250 85.531,333.615 83.934,332.500 83.176 C 329.136 80.891,324.721 79.536,322.138 79.996 M68.917 92.780 C 61.598 92.997,53.134 94.227,44.984 96.260 C 31.913 99.519,22.932 107.593,18.947 119.667 C 16.116 128.246,17.943 136.915,24.726 147.083 C 25.906 148.853,31.712 156.745,32.243 157.301 L 32.610 157.686 33.607 156.620 C 35.430 154.672,35.911 152.090,35.157 148.304 C 34.392 144.459,35.810 142.354,39.628 141.671 C 43.312 141.012,45.308 142.967,45.082 147.015 C 44.879 150.676,45.488 152.157,48.918 156.333 C 50.172 157.861,51.216 159.395,51.559 160.217 C 51.947 161.146,52.475 161.312,53.365 160.784 C 56.800 158.745,57.910 157.187,59.234 152.540 C 61.147 145.829,62.829 144.550,67.750 146.066 C 73.104 147.715,74.022 150.152,71.585 156.250 C 69.647 161.097,69.520 164.317,71.133 167.678 L 71.586 168.622 71.086 169.686 C 70.329 171.294,70.337 174.064,71.103 175.680 L 71.622 176.776 71.145 178.087 C 70.882 178.808,70.667 179.484,70.667 179.589 C 70.667 180.132,77.745 182.919,83.750 184.741 C 85.767 185.353,89.254 186.450,91.500 187.180 C 96.133 188.686,96.656 188.733,97.797 187.752 C 97.823 187.729,97.679 187.120,97.478 186.397 C 96.131 181.572,97.321 179.697,102.810 177.997 C 105.421 177.189,106.108 176.315,106.413 173.417 C 106.766 170.068,108.054 169.288,109.333 171.648 C 109.594 172.128,109.952 172.511,110.288 172.667 C 110.930 172.965,111.016 173.588,110.514 174.298 C 109.798 175.311,110.112 176.172,111.349 176.589 C 111.804 176.742,111.931 176.890,112.035 177.391 C 112.529 179.769,114.006 180.487,116.086 179.360 L 117.057 178.835 117.737 179.237 C 119.407 180.223,120.237 181.587,119.617 182.323 C 118.835 183.253,118.831 184.125,119.601 185.260 C 120.180 186.114,119.958 186.579,118.351 187.870 C 116.111 189.670,116.000 189.801,115.997 190.658 C 115.993 192.001,116.478 191.911,108.982 191.967 C 104.447 192.001,102.228 191.961,102.109 191.842 C 101.883 191.617,101.218 191.615,101.079 191.840 C 101.008 191.956,98.881 191.997,94.611 191.965 C 88.070 191.915,88.096 191.913,85.698 192.607 L 84.812 192.863 84.928 203.640 C 85.004 210.804,84.977 216.428,84.847 220.417 C 84.599 228.017,84.797 229.212,86.458 230.132 C 87.387 230.647,91.078 230.656,92.458 230.147 L 92.833 230.008 92.833 215.504 L 92.833 201.000 108.500 201.000 L 124.167 201.000 124.167 216.170 L 124.167 231.340 124.542 231.491 C 127.390 232.637,130.078 232.795,131.001 231.871 C 132.117 230.755,132.065 231.590,132.162 213.417 L 132.250 196.917 132.685 196.866 C 132.924 196.838,133.787 197.092,134.602 197.431 C 138.562 199.074,144.736 200.969,153.000 203.078 C 158.729 204.539,164.762 206.145,166.300 206.619 L 167.683 207.044 167.368 207.397 C 166.803 208.029,163.100 212.364,162.454 213.151 C 160.708 215.273,157.926 217.246,156.333 217.489 C 154.440 217.779,153.866 218.000,153.022 218.764 C 151.042 220.558,152.606 223.250,160.804 232.157 C 163.999 235.628,164.043 235.667,164.794 235.664 C 166.824 235.657,166.801 235.372,164.194 228.417 C 163.644 226.950,162.858 224.850,162.446 223.750 C 162.034 222.650,161.672 221.625,161.640 221.473 C 161.586 221.208,162.004 220.838,164.637 218.819 L 165.524 218.138 166.206 218.611 C 168.286 220.052,171.238 223.061,174.476 227.042 C 176.354 229.349,175.998 229.244,177.516 227.944 C 180.389 225.486,182.500 223.121,187.061 217.250 C 188.770 215.050,190.486 212.844,190.876 212.347 C 192.197 210.660,192.558 210.552,195.417 210.990 C 196.150 211.102,197.463 211.302,198.333 211.435 C 199.204 211.568,200.667 211.942,201.583 212.267 C 204.205 213.196,203.993 213.242,203.709 211.806 C 203.576 211.134,203.253 209.608,202.991 208.417 C 201.809 203.042,201.725 201.413,202.564 200.102 C 205.773 195.085,207.810 187.728,209.166 176.250 C 209.274 175.333,209.581 173.252,209.847 171.625 C 210.323 168.722,210.637 165.813,210.997 160.991 C 211.256 157.508,210.985 156.493,209.598 155.746 L 209.000 155.424 208.020 156.504 L 207.040 157.583 207.510 158.500 C 208.305 160.048,208.302 160.513,207.493 161.417 C 207.139 161.812,206.663 163.532,206.781 163.986 C 206.868 164.317,205.010 164.370,186.774 164.558 L 184.298 164.583 183.577 165.379 C 183.142 165.858,182.445 167.018,181.824 168.296 C 181.257 169.462,180.565 170.735,180.285 171.125 L 179.777 171.833 176.800 171.833 C 173.205 171.833,173.580 172.350,173.595 167.417 C 173.607 163.152,173.662 162.549,174.840 153.659 L 175.670 147.401 176.650 144.742 C 180.003 135.641,183.007 129.341,185.657 125.856 C 186.767 124.396,186.707 123.905,185.227 122.372 C 182.264 119.300,181.634 115.789,183.573 113.147 C 184.683 111.634,186.228 111.264,189.420 111.747 C 191.551 112.069,191.833 112.031,191.833 111.422 L 191.833 111.000 188.750 111.000 C 186.854 111.000,185.667 110.937,185.667 110.837 C 185.667 110.494,186.514 110.145,187.643 110.024 C 188.744 109.907,189.500 109.547,189.500 109.141 C 189.500 109.063,188.933 109.000,188.239 109.000 C 187.396 109.000,185.973 108.783,183.947 108.344 C 180.875 107.680,175.183 106.473,168.667 105.104 C 143.109 99.735,124.558 96.782,105.250 95.009 C 93.798 93.957,72.788 92.549,70.833 92.703 C 70.604 92.721,69.742 92.755,68.917 92.780 M287.921 93.208 C 289.697 99.268,296.131 105.858,302.860 108.511 C 304.029 108.971,304.022 108.910,302.698 107.054 C 298.467 101.118,293.794 96.463,289.129 93.536 C 287.831 92.722,287.774 92.707,287.921 93.208 M192.750 110.251 C 191.857 110.733,191.885 110.832,192.925 110.863 C 194.856 110.922,196.077 110.677,195.706 110.306 C 195.384 109.984,193.314 109.946,192.750 110.251 M367.500 161.593 L 367.500 189.852 368.017 189.551 C 372.968 186.668,380.825 173.869,382.068 166.661 C 383.710 157.137,379.704 145.312,372.167 137.435 C 370.510 135.703,367.898 133.333,367.647 133.333 C 367.563 133.333,367.500 145.447,367.500 161.593 M115.833 134.734 C 121.287 135.451,121.482 135.901,121.998 148.992 C 122.273 155.954,122.487 159.560,122.777 162.140 L 123.046 164.530 122.603 164.973 L 122.159 165.417 116.788 165.500 C 110.393 165.599,110.000 165.739,110.000 167.921 C 110.000 168.776,109.610 168.442,108.987 167.054 C 108.325 165.578,108.479 165.617,102.833 165.485 C 93.306 165.262,92.907 164.733,94.076 153.882 C 94.719 147.911,94.853 146.051,94.978 141.412 C 95.147 135.117,95.018 135.227,103.083 134.436 C 104.841 134.264,113.858 134.474,115.833 134.734 M63.519 186.338 C 61.720 187.642,61.731 189.032,63.551 190.351 C 64.510 191.046,64.500 191.068,64.500 188.333 C 64.500 185.587,64.515 185.617,63.519 186.338 M22.333 186.298 C 22.333 186.814,23.061 188.043,23.614 188.459 L 24.145 188.860 24.349 188.179 C 24.617 187.286,24.390 186.787,23.513 186.340 C 22.692 185.921,22.333 185.908,22.333 186.298 M302.667 204.583 C 302.667 218.056,302.664 218.167,302.333 218.167 C 302.003 218.167,302.000 218.056,302.000 204.583 C 302.000 191.111,302.003 191.000,302.333 191.000 C 302.664 191.000,302.667 191.111,302.667 204.583 M31.409 205.625 C 31.470 205.877,31.825 206.591,32.197 207.211 C 32.819 208.246,32.868 208.413,32.798 209.260 C 32.736 210.007,32.766 210.164,32.958 210.091 C 33.088 210.041,33.413 210.000,33.680 210.000 C 35.035 210.000,33.782 206.046,32.221 205.394 C 31.418 205.058,31.280 205.098,31.409 205.625 M219.357 232.396 C 219.141 232.516,218.742 232.945,218.470 233.349 L 217.976 234.083 218.696 234.196 C 220.729 234.514,222.917 234.071,222.917 233.342 C 222.917 232.606,220.255 231.898,219.357 232.396 M224.333 233.445 C 224.333 233.506,224.565 234.417,224.848 235.470 L 225.362 237.384 224.442 238.234 C 222.914 239.646,222.731 241.102,223.944 242.200 C 225.402 243.519,236.024 244.033,241.917 243.069 C 245.090 242.550,245.167 242.526,245.164 242.030 C 245.155 240.612,243.928 239.713,241.716 239.503 C 239.983 239.339,239.191 239.047,236.083 237.425 C 233.577 236.117,232.446 235.685,231.102 235.521 L 230.250 235.417 230.107 234.583 C 230.028 234.125,229.937 233.656,229.904 233.542 C 229.839 233.318,224.333 233.222,224.333 233.445 " stroke="none" fill="#e9ebef" fill-rule="evenodd"></path><path id="path2" d="M194.897 83.902 C 190.402 84.993,188.857 90.212,192.095 93.367 C 193.986 95.209,194.129 95.872,193.329 99.083 C 191.863 104.966,193.250 108.000,197.403 108.000 C 199.833 108.000,200.064 107.612,199.079 105.189 C 198.243 103.131,198.680 102.152,200.534 101.934 C 201.926 101.770,203.210 101.195,205.130 99.876 C 208.019 97.890,208.661 97.520,209.860 97.151 C 210.938 96.820,210.966 96.797,210.836 96.363 C 210.230 94.340,209.289 93.529,206.666 92.769 C 204.255 92.071,203.496 91.150,203.176 88.532 C 202.686 84.525,199.552 82.772,194.897 83.902 M185.237 111.903 C 181.783 113.407,181.711 118.198,185.084 122.057 C 186.886 124.118,186.959 124.573,185.715 126.012 C 182.746 129.446,176.202 144.421,175.578 149.206 C 175.432 150.330,175.055 153.009,174.740 155.160 C 173.867 161.128,173.326 170.893,173.841 171.394 C 173.882 171.435,175.232 171.522,176.839 171.588 L 179.762 171.708 180.227 171.005 C 180.483 170.618,181.175 169.333,181.765 168.149 C 182.355 166.965,183.115 165.690,183.453 165.315 C 183.821 164.908,184.071 164.460,184.075 164.198 C 184.089 163.448,184.590 163.337,187.917 163.348 C 189.567 163.353,191.067 163.417,191.250 163.491 C 191.433 163.565,191.665 163.561,191.765 163.481 C 191.865 163.402,195.272 163.317,199.337 163.293 L 206.728 163.250 206.935 162.441 C 207.048 161.996,207.296 161.468,207.485 161.266 C 208.094 160.617,208.096 159.985,207.491 158.673 L 206.945 157.489 207.492 156.925 L 208.038 156.362 207.958 151.056 C 207.883 146.039,207.857 145.696,207.498 144.750 C 207.195 143.956,207.091 143.236,206.992 141.250 C 206.882 139.053,206.813 138.635,206.427 137.805 C 206.074 137.045,205.970 136.522,205.897 135.138 C 205.804 133.375,205.653 132.773,203.321 124.917 C 202.491 122.123,201.366 117.528,201.016 115.503 L 200.741 113.917 199.912 113.502 C 199.142 113.116,198.901 113.085,196.500 113.069 C 193.779 113.051,193.227 112.973,192.417 112.496 C 191.293 111.835,186.335 111.425,185.237 111.903 M206.001 116.941 C 206.002 118.345,206.611 121.964,207.487 125.777 C 207.952 127.802,208.333 129.569,208.333 129.702 C 208.333 129.836,208.625 130.651,208.982 131.514 C 211.280 137.070,211.704 138.153,212.156 139.618 C 212.433 140.516,212.779 141.775,212.926 142.417 C 213.073 143.058,214.101 146.227,215.212 149.458 L 217.230 155.333 217.925 155.333 C 218.436 155.333,219.212 155.616,220.852 156.400 C 225.530 158.636,228.505 159.542,231.254 159.566 L 233.259 159.583 234.384 158.391 C 235.004 157.735,235.664 157.003,235.852 156.764 L 236.194 156.329 235.846 155.623 C 235.617 155.159,235.091 154.603,234.311 154.000 C 230.403 150.981,223.705 142.489,220.640 136.667 C 220.230 135.887,219.414 134.576,218.827 133.751 C 218.240 132.927,216.608 130.377,215.200 128.085 C 211.518 122.088,208.942 118.659,206.625 116.669 L 206.000 116.132 206.001 116.941 " stroke="none" fill="#d8392c" fill-rule="evenodd"></path><path id="path3" d="M83.356 1.458 L 83.158 1.917 83.458 1.537 C 83.705 1.224,83.800 1.195,83.996 1.371 C 84.200 1.553,84.202 1.542,84.013 1.292 C 83.711 0.892,83.586 0.924,83.356 1.458 M41.315 29.792 C 41.305 45.444,41.310 58.416,41.326 58.618 C 41.446 60.113,40.002 60.789,38.767 59.817 L 38.313 59.460 38.698 59.022 L 39.083 58.583 38.667 58.939 C 38.419 59.151,37.738 59.397,36.986 59.548 C 32.190 60.507,28.503 63.503,26.073 68.417 C 23.733 73.148,23.567 76.176,25.590 77.237 C 26.242 77.579,26.382 77.583,37.375 77.530 C 46.885 77.484,48.500 77.511,48.500 77.712 C 48.500 77.842,48.669 78.091,48.875 78.266 L 49.250 78.583 48.932 78.207 C 48.423 77.607,48.606 77.583,53.806 77.583 C 58.445 77.582,58.785 77.561,59.316 77.249 C 60.884 76.328,61.082 74.696,60.013 71.500 C 57.932 65.274,53.651 61.051,48.000 59.649 C 47.221 59.456,46.396 59.137,46.168 58.940 C 45.769 58.598,45.764 58.598,46.043 58.930 C 46.924 59.981,44.968 60.846,43.846 59.902 C 43.564 59.665,43.333 59.370,43.333 59.246 C 43.333 59.123,43.165 58.975,42.958 58.916 C 42.752 58.858,42.340 58.686,42.042 58.534 L 41.500 58.258 41.500 29.879 L 41.500 1.500 42.417 1.500 L 43.333 1.500 43.333 29.917 C 43.333 45.546,43.390 58.333,43.458 58.333 C 43.527 58.333,43.564 45.508,43.541 29.833 L 43.498 1.333 42.416 1.333 L 41.333 1.333 41.315 29.792 M84.875 3.917 C 84.877 4.283,84.911 4.414,84.951 4.206 C 84.991 3.999,84.990 3.699,84.948 3.540 C 84.906 3.380,84.874 3.550,84.875 3.917 M82.714 4.250 C 82.716 4.708,82.748 4.876,82.786 4.623 C 82.825 4.369,82.824 3.994,82.784 3.789 C 82.744 3.584,82.713 3.792,82.714 4.250 M84.747 22.583 C 84.747 32.483,84.767 36.509,84.792 31.529 C 84.816 26.549,84.816 18.449,84.792 13.529 C 84.767 8.609,84.747 12.683,84.747 22.583 M82.730 23.833 C 82.730 24.887,82.757 25.319,82.790 24.792 C 82.823 24.265,82.823 23.402,82.790 22.875 C 82.757 22.348,82.730 22.779,82.730 23.833 M300.542 25.123 C 300.977 25.157,301.690 25.157,302.125 25.123 C 302.560 25.088,302.204 25.060,301.333 25.060 C 300.462 25.060,300.106 25.088,300.542 25.123 M289.289 28.589 C 288.947 28.822,288.667 29.048,288.667 29.092 C 288.667 29.136,288.967 28.973,289.333 28.730 C 289.916 28.345,290.112 28.167,289.955 28.167 C 289.931 28.167,289.631 28.357,289.289 28.589 M302.081 38.042 L 302.083 46.250 307.583 46.253 L 313.083 46.257 307.627 46.209 L 302.170 46.162 302.124 37.998 L 302.079 29.833 302.081 38.042 M285.833 31.417 C 285.150 32.104,284.629 32.667,284.675 32.667 C 284.721 32.667,285.317 32.104,286.000 31.417 C 286.683 30.729,287.204 30.167,287.158 30.167 C 287.112 30.167,286.516 30.729,285.833 31.417 M316.750 31.500 C 317.294 32.050,317.777 32.500,317.823 32.500 C 317.869 32.500,317.461 32.050,316.917 31.500 C 316.372 30.950,315.890 30.500,315.844 30.500 C 315.798 30.500,316.206 30.950,316.750 31.500 M82.889 38.500 C 82.889 39.188,82.919 39.469,82.955 39.125 C 82.991 38.781,82.991 38.219,82.955 37.875 C 82.919 37.531,82.889 37.813,82.889 38.500 M321.860 39.417 C 321.859 39.508,321.960 39.846,322.083 40.167 C 322.207 40.487,322.310 40.637,322.313 40.500 C 322.316 40.362,322.215 40.025,322.089 39.750 C 321.963 39.475,321.860 39.325,321.860 39.417 M84.914 41.138 C 85.039 41.974,85.445 42.717,86.121 43.349 C 86.729 43.916,86.729 43.916,86.053 43.126 C 85.673 42.681,85.257 41.952,85.104 41.459 C 84.937 40.923,84.863 40.799,84.914 41.138 M82.248 42.173 C 82.185 42.373,81.862 42.847,81.531 43.227 C 80.933 43.912,80.932 43.913,81.479 43.417 C 82.039 42.908,82.590 42.035,82.444 41.889 C 82.400 41.844,82.312 41.972,82.248 42.173 M77.417 45.239 C 76.326 45.764,76.492 45.772,77.750 45.253 C 78.300 45.027,78.637 44.840,78.500 44.839 C 78.362 44.838,77.875 45.018,77.417 45.239 M88.847 44.897 C 89.017 45.052,91.000 45.996,91.000 45.921 C 91.000 45.828,89.075 44.833,88.894 44.833 C 88.830 44.833,88.809 44.862,88.847 44.897 M279.379 45.667 C 279.379 46.079,279.411 46.248,279.451 46.042 C 279.491 45.835,279.491 45.498,279.451 45.292 C 279.411 45.085,279.379 45.254,279.379 45.667 M323.230 47.000 C 323.230 48.054,323.257 48.485,323.290 47.958 C 323.323 47.431,323.323 46.569,323.290 46.042 C 323.257 45.515,323.230 45.946,323.230 47.000 M91.500 46.326 C 91.729 46.526,92.302 47.019,92.772 47.421 C 93.515 48.056,94.107 48.755,95.383 50.506 C 95.547 50.732,95.630 50.804,95.565 50.667 C 95.015 49.488,93.092 47.350,91.750 46.422 C 91.366 46.157,91.260 46.116,91.500 46.326 M74.667 47.008 C 74.254 47.379,74.067 47.610,74.250 47.522 C 74.564 47.372,75.647 46.333,75.490 46.334 C 75.449 46.334,75.079 46.638,74.667 47.008 M279.381 48.417 C 279.382 48.875,279.415 49.043,279.453 48.789 C 279.491 48.536,279.490 48.161,279.451 47.956 C 279.411 47.751,279.380 47.958,279.381 48.417 M73.375 48.419 C 72.851 49.054,72.090 50.333,72.235 50.333 C 72.284 50.333,72.436 50.118,72.572 49.856 C 72.708 49.593,73.084 49.030,73.408 48.606 C 74.099 47.701,74.075 47.569,73.375 48.419 M96.200 52.171 C 96.391 52.631,96.576 52.979,96.611 52.944 C 96.690 52.866,96.043 51.333,95.932 51.333 C 95.888 51.333,96.008 51.710,96.200 52.171 M71.019 52.685 C 70.916 52.980,70.861 53.250,70.897 53.286 C 70.932 53.321,71.045 53.109,71.148 52.815 C 71.251 52.520,71.306 52.250,71.270 52.214 C 71.234 52.179,71.121 52.391,71.019 52.685 M70.519 54.016 C 70.417 54.310,70.339 54.632,70.345 54.733 C 70.352 54.834,70.464 54.623,70.596 54.265 C 70.727 53.906,70.806 53.583,70.770 53.548 C 70.734 53.512,70.622 53.723,70.519 54.016 M97.545 56.500 C 97.545 56.913,97.578 57.081,97.618 56.875 C 97.657 56.669,97.657 56.331,97.618 56.125 C 97.578 55.919,97.545 56.087,97.545 56.500 M96.850 57.764 C 96.539 57.986,96.366 58.167,96.466 58.167 C 96.566 58.167,96.859 57.982,97.116 57.755 C 97.705 57.237,97.587 57.241,96.850 57.764 M70.477 57.824 C 70.693 58.012,70.956 58.166,71.060 58.164 C 71.259 58.161,70.982 57.941,70.417 57.652 C 70.155 57.518,70.168 57.555,70.477 57.824 M75.708 58.948 C 75.869 58.990,76.131 58.990,76.292 58.948 C 76.452 58.906,76.321 58.872,76.000 58.872 C 75.679 58.872,75.548 58.906,75.708 58.948 M77.461 59.121 C 77.761 59.158,78.211 59.157,78.461 59.119 C 78.712 59.081,78.467 59.051,77.917 59.052 C 77.367 59.053,77.162 59.084,77.461 59.121 M89.208 59.119 C 89.460 59.158,89.873 59.158,90.125 59.119 C 90.377 59.081,90.171 59.050,89.667 59.050 C 89.162 59.050,88.956 59.081,89.208 59.119 M81.458 59.291 C 82.765 59.319,84.902 59.319,86.208 59.291 C 87.515 59.263,86.446 59.240,83.833 59.240 C 81.221 59.240,80.152 59.263,81.458 59.291 M317.906 61.375 L 317.417 61.917 317.958 61.427 C 318.463 60.971,318.577 60.833,318.448 60.833 C 318.419 60.833,318.175 61.077,317.906 61.375 M285.750 62.667 C 286.108 63.033,286.438 63.333,286.484 63.333 C 286.530 63.333,286.275 63.033,285.917 62.667 C 285.559 62.300,285.228 62.000,285.182 62.000 C 285.137 62.000,285.392 62.300,285.750 62.667 M292.167 67.083 C 292.396 67.214,292.658 67.322,292.750 67.322 C 292.842 67.322,292.729 67.214,292.500 67.083 C 292.271 66.952,292.008 66.845,291.917 66.845 C 291.825 66.845,291.938 66.952,292.167 67.083 M310.167 67.083 C 309.938 67.214,309.825 67.322,309.917 67.322 C 310.008 67.322,310.271 67.214,310.500 67.083 C 310.729 66.952,310.842 66.845,310.750 66.845 C 310.658 66.845,310.396 66.952,310.167 67.083 M299.044 68.953 C 299.297 68.991,299.672 68.990,299.877 68.951 C 300.082 68.911,299.875 68.880,299.417 68.881 C 298.958 68.882,298.791 68.915,299.044 68.953 M302.877 68.953 C 303.131 68.991,303.506 68.990,303.711 68.951 C 303.916 68.911,303.708 68.880,303.250 68.881 C 302.792 68.882,302.624 68.915,302.877 68.953 M37.750 79.655 C 38.208 79.714,38.747 79.854,38.947 79.965 C 39.148 80.076,39.373 80.164,39.447 80.160 C 40.006 80.131,38.269 79.517,37.667 79.530 L 36.917 79.547 37.750 79.655 M321.929 79.843 C 320.049 80.158,318.190 81.014,316.167 82.495 C 314.851 83.459,314.510 83.642,313.333 84.021 C 312.829 84.183,312.584 84.319,312.788 84.324 C 313.450 84.340,314.546 83.799,316.333 82.574 C 320.080 80.007,322.780 79.392,326.287 80.309 C 327.884 80.726,328.136 80.749,327.346 80.406 C 326.023 79.832,323.539 79.574,321.929 79.843 M328.014 80.729 C 328.052 80.763,328.871 81.187,329.833 81.672 C 330.796 82.157,331.996 82.834,332.500 83.177 C 333.304 83.722,335.802 85.262,336.750 85.796 C 336.933 85.899,337.802 86.397,338.681 86.902 C 340.235 87.795,341.167 88.238,341.167 88.082 C 341.167 88.040,340.773 87.807,340.292 87.564 C 338.780 86.800,335.673 84.988,333.250 83.455 C 330.883 81.959,327.299 80.092,328.014 80.729 M300.219 82.001 C 296.092 82.605,292.095 85.221,289.625 88.938 C 288.596 90.485,287.357 93.211,287.810 92.931 C 288.273 92.645,292.721 95.932,295.528 98.636 C 298.753 101.742,304.062 108.329,303.749 108.835 C 303.571 109.122,303.839 109.020,305.359 108.218 C 312.271 104.574,315.485 97.108,313.496 89.317 C 313.062 87.616,313.006 87.776,314.333 86.894 C 314.975 86.467,315.500 86.089,315.500 86.053 C 315.500 85.942,314.783 86.353,313.958 86.938 C 313.006 87.613,312.997 87.614,312.487 87.064 C 312.265 86.824,311.314 86.266,310.373 85.824 C 308.231 84.817,307.743 84.469,307.328 83.656 L 306.997 83.007 308.123 83.593 C 308.743 83.915,309.550 84.216,309.917 84.262 C 310.536 84.339,310.519 84.323,309.667 84.033 C 309.162 83.861,308.150 83.409,307.417 83.027 C 305.438 81.998,302.805 81.623,300.219 82.001 M321.593 83.645 C 321.323 83.703,322.331 83.750,323.833 83.750 C 325.335 83.750,326.344 83.703,326.074 83.645 C 325.804 83.587,324.796 83.539,323.833 83.539 C 322.871 83.539,321.863 83.587,321.593 83.645 M320.083 84.000 C 319.659 84.183,320.097 84.183,320.667 84.000 C 321.002 83.893,321.018 83.866,320.750 83.862 C 320.567 83.859,320.267 83.921,320.083 84.000 M327.000 84.000 C 327.570 84.183,328.008 84.183,327.583 84.000 C 327.400 83.921,327.100 83.859,326.917 83.862 C 326.649 83.866,326.665 83.893,327.000 84.000 M317.119 85.063 C 316.497 85.365,315.897 85.707,315.786 85.823 C 315.674 85.940,316.108 85.779,316.750 85.466 C 317.392 85.153,318.104 84.813,318.333 84.710 C 318.563 84.607,318.637 84.521,318.500 84.519 C 318.362 84.516,317.741 84.761,317.119 85.063 M329.333 84.704 C 329.563 84.804,330.425 85.211,331.250 85.608 C 332.075 86.005,332.600 86.214,332.417 86.072 C 331.876 85.655,329.485 84.499,329.189 84.511 C 329.014 84.519,329.066 84.588,329.333 84.704 M332.925 86.480 C 333.676 87.175,341.143 91.886,342.974 92.820 C 344.097 93.393,343.765 93.070,342.542 92.400 C 340.780 91.434,338.647 90.105,335.710 88.142 C 333.330 86.551,332.406 86.000,332.925 86.480 M341.333 88.233 C 341.333 88.325,343.708 89.627,344.249 89.833 C 345.160 90.179,344.582 89.794,343.000 89.000 C 342.083 88.540,341.333 88.195,341.333 88.233 M345.167 90.251 C 345.167 90.347,347.774 91.668,347.955 91.664 C 348.100 91.660,346.728 90.899,345.788 90.461 C 345.446 90.302,345.167 90.208,345.167 90.251 M348.583 91.955 C 348.675 92.050,349.949 92.745,351.414 93.501 C 352.879 94.256,354.417 95.173,354.831 95.539 C 355.592 96.212,357.111 97.165,357.417 97.162 C 357.508 97.161,357.171 96.934,356.667 96.656 C 356.162 96.379,355.450 95.862,355.083 95.508 C 354.505 94.950,348.087 91.442,348.583 91.955 M67.714 92.790 C 68.245 92.823,69.070 92.823,69.548 92.789 C 70.026 92.756,69.592 92.729,68.583 92.729 C 67.575 92.729,67.184 92.757,67.714 92.790 M73.458 92.790 C 73.940 92.823,74.727 92.823,75.208 92.790 C 75.690 92.756,75.296 92.728,74.333 92.728 C 73.371 92.728,72.977 92.756,73.458 92.790 M64.711 92.953 C 64.964 92.991,65.339 92.990,65.544 92.951 C 65.749 92.911,65.542 92.880,65.083 92.881 C 64.625 92.882,64.457 92.915,64.711 92.953 M77.295 92.954 C 77.594 92.991,78.044 92.990,78.295 92.952 C 78.545 92.914,78.300 92.884,77.750 92.885 C 77.200 92.886,76.995 92.917,77.295 92.954 M80.125 93.118 C 80.331 93.157,80.669 93.157,80.875 93.118 C 81.081 93.078,80.912 93.045,80.500 93.045 C 80.087 93.045,79.919 93.078,80.125 93.118 M82.794 93.285 C 83.001 93.324,83.301 93.323,83.460 93.281 C 83.620 93.239,83.450 93.207,83.083 93.209 C 82.717 93.211,82.586 93.245,82.794 93.285 M343.833 93.258 C 343.833 93.349,348.115 95.501,348.289 95.497 C 348.464 95.493,345.786 94.057,344.708 93.575 C 344.227 93.361,343.833 93.218,343.833 93.258 M85.208 93.448 C 85.369 93.490,85.631 93.490,85.792 93.448 C 85.952 93.406,85.821 93.372,85.500 93.372 C 85.179 93.372,85.048 93.406,85.208 93.448 M89.875 93.782 C 90.035 93.823,90.298 93.823,90.458 93.782 C 90.619 93.740,90.487 93.705,90.167 93.705 C 89.846 93.705,89.715 93.740,89.875 93.782 M92.042 93.948 C 92.202 93.990,92.465 93.990,92.625 93.948 C 92.785 93.906,92.654 93.872,92.333 93.872 C 92.013 93.872,91.881 93.906,92.042 93.948 M94.292 94.118 C 94.498 94.157,94.835 94.157,95.042 94.118 C 95.248 94.078,95.079 94.045,94.667 94.045 C 94.254 94.045,94.085 94.078,94.292 94.118 M96.458 94.284 C 96.665 94.324,97.002 94.324,97.208 94.284 C 97.415 94.245,97.246 94.212,96.833 94.212 C 96.421 94.212,96.252 94.245,96.458 94.284 M98.711 94.453 C 98.964 94.491,99.339 94.490,99.544 94.451 C 99.749 94.411,99.542 94.380,99.083 94.381 C 98.625 94.382,98.457 94.415,98.711 94.453 M100.625 94.618 C 100.831 94.657,101.169 94.657,101.375 94.618 C 101.581 94.578,101.412 94.545,101.000 94.545 C 100.587 94.545,100.419 94.578,100.625 94.618 M102.627 94.785 C 102.834 94.824,103.134 94.823,103.294 94.781 C 103.453 94.739,103.283 94.707,102.917 94.709 C 102.550 94.711,102.420 94.745,102.627 94.785 M104.542 94.948 C 104.702 94.990,104.965 94.990,105.125 94.948 C 105.285 94.906,105.154 94.872,104.833 94.872 C 104.513 94.872,104.381 94.906,104.542 94.948 M288.833 95.564 C 288.833 95.743,289.329 96.667,289.425 96.667 C 289.471 96.667,289.385 96.423,289.233 96.125 C 288.924 95.517,288.833 95.390,288.833 95.564 M348.728 95.674 C 349.146 95.940,352.208 97.181,352.276 97.113 C 352.341 97.048,349.230 95.678,348.750 95.559 C 348.432 95.481,348.431 95.486,348.728 95.674 M114.208 95.948 C 114.369 95.990,114.631 95.990,114.792 95.948 C 114.952 95.906,114.821 95.872,114.500 95.872 C 114.179 95.872,114.048 95.906,114.208 95.948 M115.708 96.115 C 115.869 96.157,116.131 96.157,116.292 96.115 C 116.452 96.073,116.321 96.039,116.000 96.039 C 115.679 96.039,115.548 96.073,115.708 96.115 M117.208 96.282 C 117.369 96.323,117.631 96.323,117.792 96.282 C 117.952 96.240,117.821 96.205,117.500 96.205 C 117.179 96.205,117.048 96.240,117.208 96.282 M118.542 96.448 C 118.702 96.490,118.965 96.490,119.125 96.448 C 119.285 96.406,119.154 96.372,118.833 96.372 C 118.513 96.372,118.381 96.406,118.542 96.448 M352.500 97.233 C 352.500 97.274,352.894 97.437,353.375 97.595 C 353.856 97.754,354.587 98.151,355.000 98.477 L 355.750 99.070 355.260 98.535 C 354.661 97.880,352.500 96.861,352.500 97.233 M359.677 98.059 C 359.820 98.212,362.167 99.160,362.167 99.065 C 362.167 98.971,360.634 98.278,360.000 98.085 C 359.771 98.016,359.626 98.004,359.677 98.059 M356.206 99.368 C 356.456 99.583,356.906 99.893,357.206 100.057 L 357.750 100.356 357.294 99.966 C 357.044 99.751,356.594 99.440,356.294 99.276 L 355.750 98.977 356.206 99.368 M362.563 99.369 C 362.736 99.487,363.336 99.905,363.897 100.299 C 364.737 100.889,364.810 100.918,364.312 100.466 C 363.979 100.164,363.379 99.745,362.978 99.536 C 362.578 99.326,362.391 99.251,362.563 99.369 M35.292 99.762 C 34.645 100.113,34.719 100.234,35.375 99.900 C 36.003 99.580,36.114 99.497,35.903 99.507 C 35.819 99.510,35.544 99.625,35.292 99.762 M211.358 100.583 C 211.352 100.767,211.449 101.367,211.574 101.917 C 211.698 102.467,211.804 102.767,211.809 102.583 C 211.814 102.400,211.717 101.800,211.593 101.250 C 211.469 100.700,211.363 100.400,211.358 100.583 M357.833 100.408 C 357.833 100.454,358.058 100.608,358.333 100.750 C 358.608 100.892,358.833 100.971,358.833 100.925 C 358.833 100.879,358.608 100.726,358.333 100.583 C 358.058 100.441,357.833 100.362,357.833 100.408 M359.064 101.135 C 359.110 101.209,359.920 101.630,360.865 102.071 C 362.306 102.743,362.725 103.031,363.460 103.854 L 364.337 104.835 364.294 117.501 C 364.270 124.467,364.306 130.167,364.375 130.167 C 364.444 130.167,364.503 127.898,364.506 125.125 C 364.518 115.723,364.686 104.586,364.824 104.062 C 365.023 103.310,364.860 102.719,364.299 102.158 C 363.417 101.276,362.500 101.382,362.500 102.367 C 362.500 102.624,362.249 102.544,360.836 101.835 C 359.144 100.985,358.916 100.895,359.064 101.135 M365.125 101.167 C 365.335 101.488,366.510 103.057,366.623 103.167 C 366.989 103.521,366.049 102.106,365.571 101.583 C 365.236 101.217,365.035 101.029,365.125 101.167 M293.750 102.667 C 294.294 103.217,294.777 103.667,294.823 103.667 C 294.869 103.667,294.461 103.217,293.917 102.667 C 293.372 102.117,292.890 101.667,292.844 101.667 C 292.798 101.667,293.206 102.117,293.750 102.667 M211.872 103.500 C 211.872 103.821,211.906 103.952,211.948 103.792 C 211.990 103.631,211.990 103.369,211.948 103.208 C 211.906 103.048,211.872 103.179,211.872 103.500 M28.740 104.375 L 28.250 104.917 28.792 104.427 C 29.297 103.971,29.410 103.833,29.281 103.833 C 29.252 103.833,29.009 104.077,28.740 104.375 M367.177 104.703 C 367.171 104.952,367.014 105.450,366.827 105.808 L 366.487 106.460 366.494 164.855 C 366.498 196.972,366.546 224.000,366.601 224.917 C 366.716 226.821,366.472 227.421,365.333 228.026 L 364.750 228.336 364.649 210.710 C 364.594 201.015,364.538 193.065,364.524 193.042 C 364.458 192.929,364.007 193.020,363.918 193.165 C 363.862 193.255,363.920 193.290,364.047 193.241 C 364.440 193.090,364.728 227.879,364.342 228.894 L 364.184 229.310 360.550 229.368 C 357.263 229.420,356.828 229.461,355.990 229.796 C 353.771 230.684,353.465 230.656,365.245 230.661 C 375.204 230.666,376.044 230.645,375.695 230.401 C 374.724 229.721,373.471 229.445,371.083 229.383 C 369.800 229.350,368.506 229.285,368.208 229.238 L 367.667 229.152 367.667 209.561 L 367.667 189.970 368.042 189.642 L 368.417 189.314 367.958 189.593 L 367.500 189.872 367.500 161.603 C 367.500 146.054,367.560 133.333,367.633 133.333 C 367.707 133.333,367.873 133.427,368.004 133.542 C 368.134 133.656,368.104 133.586,367.937 133.385 C 367.650 133.040,367.628 132.249,367.543 118.968 C 367.494 111.240,367.393 104.767,367.320 104.583 C 367.205 104.292,367.186 104.307,367.177 104.703 M27.073 105.875 L 26.583 106.417 27.125 105.927 C 27.630 105.471,27.743 105.333,27.615 105.333 C 27.586 105.333,27.342 105.577,27.073 105.875 M211.872 106.167 C 211.872 106.487,211.906 106.619,211.948 106.458 C 211.990 106.298,211.990 106.035,211.948 105.875 C 211.906 105.715,211.872 105.846,211.872 106.167 M25.658 107.458 L 25.083 108.083 25.708 107.509 C 26.290 106.974,26.410 106.833,26.283 106.833 C 26.255 106.833,25.974 107.115,25.658 107.458 M211.600 107.517 C 211.539 107.899,211.521 108.244,211.561 108.283 C 211.601 108.323,211.686 108.046,211.750 107.667 C 211.814 107.288,211.831 106.943,211.789 106.900 C 211.746 106.857,211.661 107.135,211.600 107.517 M196.003 108.300 C 196.000 108.519,196.975 109.010,197.370 108.988 C 197.487 108.982,197.287 108.868,196.925 108.735 C 196.562 108.603,196.207 108.402,196.136 108.289 C 196.034 108.129,196.005 108.132,196.003 108.300 M193.794 109.951 C 194.001 109.991,194.301 109.990,194.460 109.948 C 194.620 109.906,194.450 109.874,194.083 109.875 C 193.717 109.877,193.586 109.911,193.794 109.951 M23.230 110.542 C 22.657 111.515,22.619 111.598,22.911 111.250 C 23.250 110.847,23.542 110.333,23.432 110.333 C 23.389 110.333,23.298 110.427,23.230 110.542 M185.867 110.533 C 185.440 110.960,185.795 110.999,189.792 110.961 L 193.917 110.923 189.857 110.875 C 186.293 110.833,185.823 110.797,186.002 110.580 C 186.248 110.285,186.150 110.250,185.867 110.533 M207.875 111.948 C 208.035 111.990,208.298 111.990,208.458 111.948 C 208.619 111.906,208.487 111.872,208.167 111.872 C 207.846 111.872,207.715 111.906,207.875 111.948 M21.075 114.182 C 20.929 114.466,20.838 114.727,20.875 114.763 C 20.911 114.800,21.065 114.568,21.217 114.248 C 21.560 113.529,21.441 113.474,21.075 114.182 M201.000 114.299 C 201.000 115.347,203.193 124.561,203.862 126.325 C 204.746 128.655,205.893 133.254,206.004 134.917 C 206.099 136.336,206.227 136.989,206.572 137.808 C 206.962 138.732,207.034 139.195,207.147 141.474 C 207.257 143.683,207.336 144.211,207.665 144.917 C 208.039 145.721,208.055 145.934,208.128 151.029 L 208.204 156.309 208.590 155.863 L 208.975 155.417 209.586 155.743 C 210.986 156.490,211.257 157.498,210.997 160.991 C 210.637 165.813,210.323 168.722,209.847 171.625 C 209.581 173.252,209.274 175.333,209.166 176.250 C 208.001 186.107,206.524 192.246,204.136 197.151 C 203.582 198.289,202.875 199.616,202.564 200.102 C 201.725 201.413,201.809 203.042,202.991 208.417 C 203.902 212.559,203.971 213.000,203.710 213.000 C 203.511 213.000,203.512 213.036,203.715 213.238 C 203.858 213.382,204.136 214.631,204.411 216.363 C 204.663 217.951,205.118 220.604,205.422 222.258 C 205.726 223.912,206.097 226.387,206.247 227.758 C 207.042 235.059,208.317 236.222,213.917 234.755 C 216.006 234.207,216.407 234.152,217.750 234.225 C 218.575 234.270,218.963 234.257,218.612 234.195 L 217.975 234.083 218.470 233.349 C 219.350 232.041,220.457 231.816,222.009 232.627 C 223.098 233.195,223.175 233.398,222.471 233.828 C 222.166 234.013,222.005 234.166,222.112 234.166 C 222.220 234.166,222.520 233.993,222.779 233.781 C 223.357 233.307,229.766 233.079,229.898 233.527 C 229.935 233.650,230.028 234.125,230.107 234.583 C 230.246 235.393,230.266 235.417,230.833 235.432 C 231.396 235.446,231.398 235.444,230.884 235.380 C 230.231 235.299,230.068 234.583,230.214 232.448 C 230.398 229.768,230.160 228.465,228.156 221.167 C 227.488 218.732,227.282 217.680,227.180 216.167 C 227.097 214.947,227.041 214.605,227.025 215.226 C 227.000 216.203,227.000 216.203,226.542 216.094 C 225.236 215.784,224.809 214.751,225.572 213.750 C 226.088 213.073,226.094 212.851,225.661 210.550 C 224.961 206.828,225.030 207.048,224.529 206.948 C 223.224 206.686,222.846 205.716,223.611 204.590 L 224.055 203.937 223.516 201.593 C 223.220 200.304,222.755 198.162,222.484 196.833 C 221.300 191.045,221.006 189.993,220.525 189.819 C 218.938 189.246,218.648 188.339,219.694 187.222 L 220.032 186.861 219.505 184.722 C 219.215 183.546,218.833 181.871,218.656 181.000 C 218.478 180.129,217.987 177.954,217.564 176.167 C 217.141 174.379,216.352 171.042,215.811 168.750 C 215.271 166.458,214.609 163.758,214.341 162.750 C 213.035 157.847,213.411 156.355,216.156 155.546 L 217.114 155.264 215.819 151.507 C 215.106 149.441,214.256 146.980,213.928 146.038 C 213.601 145.097,213.074 143.335,212.758 142.122 C 211.990 139.174,211.484 137.742,209.710 133.500 C 208.527 130.669,208.151 129.567,207.918 128.250 C 207.756 127.333,207.441 125.833,207.218 124.917 C 206.395 121.526,206.141 120.030,206.018 117.833 C 205.823 114.379,205.489 114.001,202.625 114.000 C 201.174 114.000,201.000 114.032,201.000 114.299 M318.220 121.958 C 320.220 121.985,323.445 121.985,325.386 121.958 C 327.328 121.931,325.692 121.910,321.750 121.910 C 317.808 121.910,316.220 121.932,318.220 121.958 M311.631 122.123 C 312.115 122.157,312.865 122.156,313.297 122.122 C 313.730 122.088,313.333 122.060,312.417 122.061 C 311.500 122.061,311.146 122.089,311.631 122.123 M330.213 122.123 C 330.652 122.157,331.327 122.157,331.713 122.122 C 332.100 122.087,331.742 122.059,330.917 122.059 C 330.092 122.060,329.775 122.088,330.213 122.123 M308.375 122.288 C 308.719 122.324,309.281 122.324,309.625 122.288 C 309.969 122.252,309.688 122.223,309.000 122.223 C 308.313 122.223,308.031 122.252,308.375 122.288 M333.295 122.287 C 333.594 122.325,334.044 122.324,334.295 122.286 C 334.545 122.248,334.300 122.217,333.750 122.218 C 333.200 122.219,332.995 122.250,333.295 122.287 M305.625 122.451 C 305.831 122.491,306.169 122.491,306.375 122.451 C 306.581 122.411,306.412 122.379,306.000 122.379 C 305.587 122.379,305.419 122.411,305.625 122.451 M335.960 122.451 C 336.168 122.491,336.468 122.490,336.627 122.448 C 336.786 122.406,336.617 122.374,336.250 122.375 C 335.883 122.377,335.753 122.411,335.960 122.451 M303.375 122.615 C 303.535 122.657,303.798 122.657,303.958 122.615 C 304.119 122.573,303.987 122.539,303.667 122.539 C 303.346 122.539,303.215 122.573,303.375 122.615 M301.208 122.782 C 301.369 122.823,301.631 122.823,301.792 122.782 C 301.952 122.740,301.821 122.705,301.500 122.705 C 301.179 122.705,301.048 122.740,301.208 122.782 M295.708 123.282 C 295.869 123.323,296.131 123.323,296.292 123.282 C 296.452 123.240,296.321 123.205,296.000 123.205 C 295.679 123.205,295.548 123.240,295.708 123.282 M293.875 123.448 C 294.035 123.490,294.298 123.490,294.458 123.448 C 294.619 123.406,294.487 123.372,294.167 123.372 C 293.846 123.372,293.715 123.406,293.875 123.448 M292.294 123.618 C 292.501 123.658,292.801 123.656,292.960 123.615 C 293.120 123.573,292.950 123.540,292.583 123.542 C 292.217 123.544,292.086 123.578,292.294 123.618 M290.458 123.784 C 290.665 123.824,291.002 123.824,291.208 123.784 C 291.415 123.745,291.246 123.712,290.833 123.712 C 290.421 123.712,290.252 123.745,290.458 123.784 M288.960 123.951 C 289.168 123.991,289.468 123.990,289.627 123.948 C 289.786 123.906,289.617 123.874,289.250 123.875 C 288.883 123.877,288.753 123.911,288.960 123.951 M287.460 124.118 C 287.668 124.158,287.968 124.156,288.127 124.115 C 288.286 124.073,288.117 124.040,287.750 124.042 C 287.383 124.044,287.253 124.078,287.460 124.118 M276.042 125.448 C 276.202 125.490,276.465 125.490,276.625 125.448 C 276.785 125.406,276.654 125.372,276.333 125.372 C 276.012 125.372,275.881 125.406,276.042 125.448 M17.564 127.417 C 17.564 128.517,17.591 128.945,17.624 128.368 C 17.656 127.792,17.656 126.892,17.623 126.368 C 17.590 125.845,17.563 126.317,17.564 127.417 M274.627 125.618 C 274.834 125.658,275.134 125.656,275.294 125.615 C 275.453 125.573,275.283 125.540,274.917 125.542 C 274.550 125.544,274.420 125.578,274.627 125.618 M273.294 125.785 C 273.501 125.824,273.801 125.823,273.960 125.781 C 274.120 125.739,273.950 125.707,273.583 125.709 C 273.217 125.711,273.086 125.745,273.294 125.785 M272.042 125.948 C 272.202 125.990,272.465 125.990,272.625 125.948 C 272.785 125.906,272.654 125.872,272.333 125.872 C 272.012 125.872,271.881 125.906,272.042 125.948 M322.125 133.125 C 322.102 136.860,322.098 140.442,322.117 141.083 C 322.135 141.725,321.888 144.490,321.568 147.227 C 321.248 149.965,320.955 152.905,320.916 153.761 C 320.820 155.924,319.521 160.333,318.981 160.333 C 318.447 160.333,318.345 159.562,318.750 158.577 C 319.116 157.686,319.157 157.359,319.141 155.417 L 319.123 153.250 318.920 155.750 C 318.794 157.307,318.613 158.484,318.442 158.870 C 318.078 159.689,318.089 159.772,318.625 160.299 L 319.083 160.750 319.075 164.000 C 319.066 167.521,318.981 168.424,317.997 175.333 C 317.463 179.080,317.000 183.309,317.000 184.432 C 317.000 184.575,316.701 184.670,316.125 184.710 C 315.644 184.744,318.587 184.769,322.667 184.767 C 326.746 184.764,329.193 184.738,328.105 184.709 L 326.127 184.656 326.238 184.120 C 326.916 180.828,327.072 175.609,326.841 163.917 C 326.799 161.808,326.827 157.871,326.902 155.167 L 327.038 150.250 326.120 149.862 L 325.203 149.475 325.119 145.779 C 325.073 143.746,325.037 141.446,325.038 140.667 C 325.040 139.728,324.887 138.547,324.583 137.167 C 324.202 135.433,324.107 134.509,324.018 131.667 C 323.897 127.769,323.425 126.333,322.266 126.333 C 322.211 126.333,322.148 129.390,322.125 133.125 M358.667 127.417 C 359.079 127.638,359.492 127.818,359.583 127.818 C 359.675 127.818,359.412 127.638,359.000 127.417 C 358.587 127.196,358.175 127.015,358.083 127.015 C 357.992 127.015,358.254 127.196,358.667 127.417 M262.042 127.282 C 262.202 127.323,262.465 127.323,262.625 127.282 C 262.785 127.240,262.654 127.205,262.333 127.205 C 262.012 127.205,261.881 127.240,262.042 127.282 M260.708 127.448 C 260.869 127.490,261.131 127.490,261.292 127.448 C 261.452 127.406,261.321 127.372,261.000 127.372 C 260.679 127.372,260.548 127.406,260.708 127.448 M259.542 127.615 C 259.702 127.657,259.965 127.657,260.125 127.615 C 260.285 127.573,260.154 127.539,259.833 127.539 C 259.512 127.539,259.381 127.573,259.542 127.615 M258.375 127.782 C 258.535 127.823,258.798 127.823,258.958 127.782 C 259.119 127.740,258.987 127.705,258.667 127.705 C 258.346 127.705,258.215 127.740,258.375 127.782 M254.583 128.167 C 255.046 128.366,255.373 128.366,255.250 128.167 C 255.193 128.075,254.945 128.005,254.698 128.012 C 254.298 128.022,254.286 128.039,254.583 128.167 M361.833 128.915 C 361.833 129.028,363.187 129.702,363.262 129.626 C 363.297 129.591,362.990 129.400,362.580 129.200 C 362.169 129.001,361.833 128.873,361.833 128.915 M103.083 134.436 C 95.018 135.227,95.147 135.117,94.978 141.412 C 94.853 146.051,94.719 147.911,94.076 153.882 C 92.907 164.733,93.306 165.262,102.833 165.485 C 108.479 165.617,108.325 165.578,108.987 167.054 C 109.610 168.442,110.000 168.776,110.000 167.921 C 110.000 165.739,110.393 165.599,116.788 165.500 L 122.159 165.417 122.603 164.973 L 123.046 164.530 122.777 162.140 C 122.487 159.560,122.273 155.954,121.998 148.992 C 121.565 138.008,121.070 135.911,118.755 135.248 C 116.546 134.615,106.539 134.097,103.083 134.436 M371.333 136.583 C 372.385 137.637,373.282 138.500,373.328 138.500 C 373.374 138.500,372.551 137.637,371.500 136.583 C 370.449 135.529,369.551 134.667,369.505 134.667 C 369.460 134.667,370.282 135.529,371.333 136.583 M327.595 135.847 C 327.451 136.331,327.339 136.845,327.345 136.989 C 327.352 137.132,327.496 136.763,327.666 136.168 C 327.836 135.573,327.948 135.059,327.915 135.027 C 327.883 134.994,327.738 135.363,327.595 135.847 M329.205 136.667 C 329.205 136.987,329.240 137.119,329.282 136.958 C 329.323 136.798,329.323 136.535,329.282 136.375 C 329.240 136.215,329.205 136.346,329.205 136.667 M327.205 137.833 C 327.205 138.154,327.240 138.285,327.282 138.125 C 327.323 137.965,327.323 137.702,327.282 137.542 C 327.240 137.381,327.205 137.512,327.205 137.833 M329.218 138.917 C 329.219 139.467,329.250 139.672,329.287 139.372 C 329.325 139.072,329.324 138.622,329.286 138.372 C 329.248 138.122,329.217 138.367,329.218 138.917 M317.697 138.547 C 317.303 139.022,316.841 140.278,316.857 140.833 C 316.871 141.369,316.883 141.354,317.002 140.650 C 317.138 139.847,317.587 138.831,317.893 138.634 C 317.993 138.570,318.030 138.475,317.977 138.422 C 317.924 138.369,317.798 138.425,317.697 138.547 M327.066 141.083 C 327.066 142.367,327.092 142.870,327.124 142.201 C 327.156 141.532,327.155 140.482,327.123 139.868 C 327.091 139.253,327.065 139.800,327.066 141.083 M375.167 141.000 C 375.362 141.275,375.560 141.500,375.606 141.500 C 375.652 141.500,375.529 141.275,375.333 141.000 C 375.138 140.725,374.940 140.500,374.894 140.500 C 374.848 140.500,374.971 140.725,375.167 141.000 M329.186 140.840 C 329.175 140.981,329.317 141.390,329.500 141.750 C 329.683 142.110,329.833 142.292,329.833 142.156 C 329.833 142.019,329.730 141.760,329.603 141.579 C 329.477 141.398,329.336 141.100,329.289 140.917 C 329.237 140.711,329.198 140.681,329.186 140.840 M39.234 141.741 C 35.681 142.538,34.415 144.576,35.157 148.304 C 35.911 152.087,35.430 154.672,33.611 156.616 L 32.617 157.678 32.185 157.298 C 31.829 156.984,31.804 156.978,32.041 157.261 C 32.303 157.573,32.307 157.668,32.090 158.261 C 31.958 158.622,31.680 159.478,31.473 160.164 C 30.811 162.354,30.164 162.820,27.305 163.167 C 21.966 163.815,20.963 166.570,23.998 172.250 C 25.479 175.023,25.459 175.742,23.845 177.570 C 22.394 179.214,22.274 179.647,22.243 183.333 C 22.229 185.029,22.250 186.323,22.289 186.208 C 22.392 185.911,22.748 185.950,23.513 186.340 C 24.397 186.791,24.617 187.285,24.342 188.202 C 24.181 188.740,24.178 188.921,24.329 188.971 C 25.685 189.423,29.318 192.711,30.311 194.384 C 32.014 197.255,32.509 202.010,31.404 204.889 C 31.349 205.033,31.548 205.178,31.978 205.307 C 33.653 205.809,35.174 210.000,33.680 210.000 C 33.413 210.000,33.076 210.045,32.931 210.101 C 32.715 210.184,32.683 210.102,32.751 209.643 L 32.834 209.083 32.633 209.583 C 31.945 211.297,32.510 218.632,33.603 222.167 C 36.021 229.989,39.895 232.160,50.000 231.358 C 57.914 230.729,61.276 225.678,61.611 213.917 L 61.715 210.250 63.399 208.500 C 67.319 204.427,67.815 200.857,65.472 193.583 C 64.803 191.507,64.770 191.303,64.671 188.667 L 64.567 185.917 64.534 188.375 C 64.497 191.067,64.508 191.044,63.551 190.351 C 62.165 189.347,61.845 188.446,62.495 187.380 C 62.825 186.838,64.061 185.834,64.400 185.832 C 64.501 185.832,64.771 185.552,65.000 185.210 C 65.671 184.210,67.811 182.029,69.226 180.905 C 70.533 179.866,70.536 179.862,71.074 178.310 L 71.613 176.756 71.098 175.670 C 70.337 174.064,70.332 171.289,71.086 169.686 L 71.586 168.622 71.133 167.678 C 69.520 164.317,69.647 161.097,71.585 156.250 C 74.022 150.152,73.104 147.715,67.750 146.066 C 62.829 144.550,61.147 145.829,59.234 152.540 C 57.910 157.187,56.800 158.745,53.365 160.784 C 52.475 161.312,51.947 161.146,51.559 160.217 C 51.216 159.395,50.172 157.861,48.918 156.333 C 45.490 152.159,44.879 150.675,45.082 147.022 C 45.314 142.850,43.120 140.868,39.234 141.741 M317.898 143.583 C 317.898 144.775,317.925 145.241,317.957 144.618 C 317.989 143.996,317.989 143.021,317.957 142.451 C 317.924 141.882,317.898 142.392,317.898 143.583 M316.871 145.522 L 316.833 148.962 316.417 149.235 L 316.000 149.508 316.038 152.796 L 316.076 156.083 316.125 152.802 C 316.171 149.702,316.192 149.514,316.503 149.416 C 316.980 149.264,317.017 148.933,316.960 145.333 L 316.909 142.083 316.871 145.522 M306.391 143.586 C 306.516 144.499,306.870 145.220,307.580 146.014 C 307.934 146.408,308.153 146.860,308.227 147.347 C 308.453 148.841,309.381 151.379,310.085 152.429 C 311.254 154.171,312.408 162.758,311.893 165.875 C 311.763 166.664,311.713 166.659,310.649 165.750 C 309.299 164.598,309.060 164.899,309.510 167.186 C 309.817 168.741,309.724 174.247,309.327 178.083 C 308.735 183.805,309.011 184.547,311.819 184.783 L 312.946 184.877 313.060 180.569 C 313.163 176.639,313.239 175.827,313.921 171.338 C 314.332 168.631,314.936 164.654,315.262 162.500 C 315.588 160.346,315.893 158.453,315.939 158.293 C 315.997 158.089,315.949 158.030,315.780 158.095 C 315.365 158.254,313.587 154.994,312.590 152.246 C 312.120 150.953,311.031 149.081,309.828 147.500 C 309.187 146.657,308.845 146.037,308.778 145.596 C 308.659 144.814,308.137 144.038,307.262 143.343 C 306.394 142.653,306.268 142.688,306.391 143.586 M327.232 146.583 C 327.233 147.867,327.259 148.370,327.291 147.701 C 327.322 147.032,327.322 145.982,327.290 145.368 C 327.258 144.753,327.232 145.300,327.232 146.583 M378.678 146.750 C 378.678 146.842,378.786 147.104,378.917 147.333 C 379.048 147.563,379.155 147.675,379.155 147.583 C 379.155 147.492,379.048 147.229,378.917 147.000 C 378.786 146.771,378.678 146.658,378.678 146.750 M318.050 147.667 C 318.050 148.171,318.081 148.377,318.119 148.125 C 318.158 147.873,318.158 147.460,318.119 147.208 C 318.081 146.956,318.050 147.162,318.050 147.667 M318.178 149.250 C 318.178 149.342,318.286 149.604,318.417 149.833 C 318.548 150.063,318.655 150.175,318.655 150.083 C 318.655 149.992,318.548 149.729,318.417 149.500 C 318.286 149.271,318.178 149.158,318.178 149.250 M318.881 152.417 C 318.882 152.875,318.915 153.043,318.953 152.789 C 318.991 152.536,318.990 152.161,318.951 151.956 C 318.911 151.751,318.880 151.958,318.881 152.417 M331.037 152.083 C 331.034 152.358,331.132 153.333,331.256 154.250 L 331.480 155.917 331.388 154.500 C 331.286 152.913,331.045 151.256,331.037 152.083 M331.544 156.667 C 331.541 157.079,331.594 157.904,331.661 158.500 C 331.776 159.527,331.783 159.540,331.790 158.750 C 331.794 158.292,331.741 157.467,331.673 156.917 C 331.561 156.013,331.549 155.989,331.544 156.667 M382.379 160.000 C 382.379 160.412,382.411 160.581,382.451 160.375 C 382.491 160.169,382.491 159.831,382.451 159.625 C 382.411 159.419,382.379 159.587,382.379 160.000 M335.556 160.694 C 334.287 161.447,334.132 161.602,333.243 163.011 L 332.290 164.522 332.585 170.469 C 332.934 177.495,332.782 182.549,332.166 184.387 L 332.009 184.858 333.531 184.739 C 334.898 184.632,335.043 184.647,334.950 184.891 C 334.861 185.121,334.894 185.132,335.166 184.962 C 335.362 184.839,335.419 184.719,335.312 184.653 C 335.018 184.472,335.227 168.999,335.552 166.833 C 335.861 164.777,336.400 162.116,336.762 160.857 C 337.087 159.732,337.160 159.742,335.556 160.694 M331.872 160.667 C 331.872 160.987,331.906 161.119,331.948 160.958 C 331.990 160.798,331.990 160.535,331.948 160.375 C 331.906 160.215,331.872 160.346,331.872 160.667 M382.552 162.250 C 382.553 162.800,382.584 163.005,382.621 162.705 C 382.658 162.406,382.657 161.956,382.619 161.705 C 382.581 161.455,382.551 161.700,382.552 162.250 M382.379 164.500 C 382.379 164.912,382.411 165.081,382.451 164.875 C 382.491 164.669,382.491 164.331,382.451 164.125 C 382.411 163.919,382.379 164.087,382.379 164.500 M107.276 170.581 C 106.934 170.923,106.539 172.221,106.413 173.417 C 106.108 176.315,105.421 177.189,102.810 177.997 C 97.329 179.695,96.132 181.574,97.472 186.377 C 97.671 187.088,97.833 187.698,97.833 187.732 C 97.833 187.765,97.606 187.887,97.328 188.002 C 97.050 188.117,96.853 188.242,96.890 188.279 C 96.927 188.316,97.146 188.260,97.377 188.155 C 98.336 187.717,101.044 189.831,101.069 191.037 L 101.083 191.750 100.333 191.850 L 99.583 191.950 100.282 191.975 C 100.666 191.989,101.027 191.925,101.083 191.833 C 101.219 191.614,101.886 191.620,102.109 191.842 C 102.228 191.961,104.447 192.001,108.982 191.967 C 116.478 191.911,115.993 192.001,115.997 190.658 C 116.000 189.801,116.111 189.670,118.351 187.870 C 119.958 186.579,120.180 186.114,119.601 185.260 C 118.831 184.125,118.835 183.253,119.617 182.323 C 120.237 181.587,119.407 180.223,117.737 179.237 L 117.057 178.835 116.086 179.360 C 114.006 180.487,112.529 179.769,112.035 177.391 C 111.931 176.890,111.804 176.742,111.349 176.589 C 110.112 176.172,109.798 175.311,110.514 174.298 C 111.016 173.588,110.930 172.965,110.288 172.667 C 109.952 172.511,109.594 172.128,109.333 171.648 C 108.601 170.298,107.915 169.942,107.276 170.581 M380.685 171.352 C 380.583 171.646,380.528 171.917,380.563 171.952 C 380.599 171.988,380.712 171.776,380.815 171.481 C 380.917 171.187,380.972 170.917,380.937 170.881 C 380.901 170.845,380.788 171.057,380.685 171.352 M378.952 175.256 C 378.613 175.940,378.372 176.500,378.416 176.500 C 378.527 176.500,379.702 174.146,379.628 174.072 C 379.594 174.039,379.290 174.572,378.952 175.256 M375.897 180.542 C 375.323 181.515,375.286 181.598,375.578 181.250 C 375.916 180.847,376.208 180.333,376.099 180.333 C 376.055 180.333,375.964 180.427,375.897 180.542 M72.500 180.750 C 72.729 180.881,72.992 180.988,73.083 180.988 C 73.175 180.988,73.063 180.881,72.833 180.750 C 72.604 180.619,72.342 180.512,72.250 180.512 C 72.158 180.512,72.271 180.619,72.500 180.750 M373.073 184.612 C 372.816 184.948,372.691 185.171,372.795 185.107 C 373.009 184.975,373.730 184.000,373.614 184.000 C 373.573 184.000,373.330 184.275,373.073 184.612 M305.458 184.951 C 305.665 184.991,306.002 184.991,306.208 184.951 C 306.415 184.911,306.246 184.879,305.833 184.879 C 305.421 184.879,305.252 184.911,305.458 184.951 M336.833 185.219 C 336.833 185.248,337.077 185.491,337.375 185.760 L 337.917 186.250 337.427 185.708 C 336.971 185.203,336.833 185.090,336.833 185.219 M371.824 186.125 L 371.250 186.750 371.875 186.176 C 372.219 185.860,372.500 185.578,372.500 185.551 C 372.500 185.423,372.359 185.543,371.824 186.125 M311.544 185.786 C 311.797 185.825,312.172 185.824,312.377 185.784 C 312.582 185.744,312.375 185.713,311.917 185.714 C 311.458 185.716,311.291 185.748,311.544 185.786 M324.384 185.791 C 325.467 185.820,327.192 185.820,328.218 185.791 C 329.244 185.762,328.358 185.738,326.250 185.738 C 324.142 185.738,323.302 185.762,324.384 185.791 M315.301 185.958 C 316.429 185.987,318.229 185.987,319.301 185.958 C 320.373 185.929,319.450 185.905,317.250 185.905 C 315.050 185.905,314.173 185.929,315.301 185.958 M331.380 185.956 C 331.818 185.990,332.493 185.990,332.880 185.955 C 333.267 185.920,332.908 185.892,332.083 185.892 C 331.258 185.893,330.942 185.922,331.380 185.956 M303.885 187.417 C 303.886 187.967,303.917 188.172,303.954 187.872 C 303.991 187.572,303.990 187.122,303.952 186.872 C 303.914 186.622,303.884 186.867,303.885 187.417 M22.340 186.800 C 22.329 187.146,22.766 187.889,23.191 188.249 L 23.583 188.581 23.217 188.164 C 23.016 187.935,22.738 187.486,22.599 187.165 C 22.460 186.845,22.343 186.681,22.340 186.800 M338.266 190.235 C 338.303 191.785,338.333 201.695,338.333 212.256 L 338.333 231.459 339.156 231.813 C 340.510 232.395,342.000 232.105,342.000 231.258 C 342.000 231.183,341.845 231.319,341.655 231.561 C 341.216 232.119,340.249 232.149,339.167 231.639 L 338.417 231.286 339.056 231.123 C 341.164 230.586,341.165 230.581,341.166 217.150 C 341.167 205.446,341.189 204.996,341.815 204.274 C 342.062 203.989,342.091 204.995,342.178 216.941 C 342.242 225.654,342.247 224.797,342.193 214.333 C 342.149 205.762,342.129 197.304,342.148 195.536 C 342.205 190.324,341.587 189.000,339.098 189.000 L 338.352 189.000 338.275 188.208 C 338.233 187.773,338.229 188.685,338.266 190.235 M369.740 188.208 L 369.250 188.750 369.792 188.260 C 370.297 187.804,370.410 187.667,370.281 187.667 C 370.252 187.667,370.009 187.910,369.740 188.208 M303.747 208.417 C 303.747 219.233,303.767 223.634,303.792 218.195 C 303.816 212.757,303.816 203.907,303.792 198.529 C 303.767 193.150,303.747 197.600,303.747 208.417 M319.477 189.485 L 319.083 189.804 319.043 209.777 C 319.000 231.314,318.964 230.416,319.879 230.738 C 321.033 231.144,321.896 230.179,322.056 228.303 C 322.350 224.857,322.214 189.613,321.905 189.388 C 321.437 189.045,319.946 189.105,319.477 189.485 M302.000 204.583 C 302.000 218.056,302.003 218.167,302.333 218.167 C 302.664 218.167,302.667 218.056,302.667 204.583 C 302.667 191.111,302.664 191.000,302.333 191.000 C 302.003 191.000,302.000 191.111,302.000 204.583 M90.881 191.790 C 91.412 191.823,92.237 191.823,92.714 191.789 C 93.192 191.756,92.758 191.729,91.750 191.729 C 90.742 191.729,90.351 191.757,90.881 191.790 M88.542 191.948 C 88.702 191.990,88.965 191.990,89.125 191.948 C 89.285 191.906,89.154 191.872,88.833 191.872 C 88.513 191.872,88.381 191.906,88.542 191.948 M95.042 191.955 C 95.385 191.991,95.948 191.991,96.292 191.955 C 96.635 191.919,96.354 191.889,95.667 191.889 C 94.979 191.889,94.698 191.919,95.042 191.955 M360.125 195.262 C 359.502 195.600,359.540 195.741,360.167 195.417 C 360.442 195.274,360.667 195.123,360.667 195.079 C 360.667 194.972,360.649 194.978,360.125 195.262 M132.243 197.042 C 132.200 197.156,132.184 204.225,132.208 212.750 L 132.252 228.250 132.293 212.636 L 132.333 197.021 132.875 196.954 L 133.417 196.887 132.870 196.860 C 132.564 196.845,132.288 196.925,132.243 197.042 M133.833 197.250 C 134.063 197.381,134.325 197.488,134.417 197.488 C 134.508 197.488,134.396 197.381,134.167 197.250 C 133.938 197.119,133.675 197.012,133.583 197.012 C 133.492 197.012,133.604 197.119,133.833 197.250 M356.292 197.429 C 355.669 197.767,355.707 197.907,356.333 197.583 C 356.608 197.441,356.833 197.289,356.833 197.246 C 356.833 197.138,356.815 197.145,356.292 197.429 M350.333 200.583 C 349.738 200.895,349.325 201.150,349.417 201.150 C 349.508 201.150,350.071 200.895,350.667 200.583 C 351.262 200.271,351.675 200.016,351.583 200.016 C 351.492 200.016,350.929 200.271,350.333 200.583 M143.583 200.667 C 143.767 200.745,144.029 200.810,144.167 200.810 C 144.324 200.810,144.293 200.757,144.083 200.667 C 143.900 200.588,143.637 200.523,143.500 200.523 C 143.342 200.523,143.373 200.576,143.583 200.667 M144.750 201.000 C 144.933 201.079,145.196 201.143,145.333 201.143 C 145.491 201.143,145.460 201.090,145.250 201.000 C 145.067 200.921,144.804 200.857,144.667 200.857 C 144.509 200.857,144.540 200.910,144.750 201.000 M92.913 215.417 C 92.913 223.392,92.933 226.679,92.958 222.721 C 92.983 218.763,92.983 212.238,92.958 208.221 C 92.933 204.204,92.913 207.442,92.913 215.417 M84.911 209.750 C 84.911 214.242,84.932 216.055,84.958 213.780 C 84.984 211.505,84.984 207.830,84.958 205.613 C 84.932 203.397,84.910 205.258,84.911 209.750 M150.917 202.644 C 151.100 202.724,151.512 202.838,151.833 202.896 C 152.234 202.968,152.312 202.956,152.083 202.856 C 151.900 202.776,151.487 202.662,151.167 202.604 C 150.766 202.532,150.688 202.544,150.917 202.644 M164.917 206.333 C 165.100 206.412,165.362 206.477,165.500 206.477 C 165.658 206.477,165.627 206.424,165.417 206.333 C 165.233 206.255,164.971 206.190,164.833 206.190 C 164.676 206.190,164.707 206.243,164.917 206.333 M32.215 207.542 C 32.443 207.931,32.666 208.400,32.712 208.583 C 32.790 208.896,32.796 208.897,32.814 208.598 C 32.833 208.286,32.075 206.833,31.894 206.833 C 31.843 206.833,31.988 207.152,32.215 207.542 M193.127 210.785 C 193.334 210.824,193.634 210.823,193.794 210.781 C 193.953 210.739,193.783 210.707,193.417 210.709 C 193.050 210.711,192.920 210.745,193.127 210.785 M163.491 211.792 L 162.917 212.417 163.542 211.842 C 164.123 211.308,164.243 211.167,164.116 211.167 C 164.088 211.167,163.807 211.448,163.491 211.792 M298.792 213.284 C 298.998 213.324,299.335 213.324,299.542 213.284 C 299.748 213.245,299.579 213.212,299.167 213.212 C 298.754 213.212,298.585 213.245,298.792 213.284 M297.125 213.451 C 297.331 213.491,297.669 213.491,297.875 213.451 C 298.081 213.411,297.912 213.379,297.500 213.379 C 297.087 213.379,296.919 213.411,297.125 213.451 M295.627 213.618 C 295.834 213.658,296.134 213.656,296.294 213.615 C 296.453 213.573,296.283 213.540,295.917 213.542 C 295.550 213.544,295.420 213.578,295.627 213.618 M161.406 214.208 L 160.917 214.750 161.458 214.260 C 161.756 213.991,162.000 213.748,162.000 213.719 C 162.000 213.590,161.862 213.703,161.406 214.208 M294.127 213.785 C 294.334 213.824,294.634 213.823,294.794 213.781 C 294.953 213.739,294.783 213.707,294.417 213.709 C 294.050 213.711,293.920 213.745,294.127 213.785 M292.708 213.948 C 292.869 213.990,293.131 213.990,293.292 213.948 C 293.452 213.906,293.321 213.872,293.000 213.872 C 292.679 213.872,292.548 213.906,292.708 213.948 M282.292 214.951 C 282.498 214.991,282.835 214.991,283.042 214.951 C 283.248 214.911,283.079 214.879,282.667 214.879 C 282.254 214.879,282.085 214.911,282.292 214.951 M276.217 215.124 C 277.023 215.155,278.298 215.155,279.050 215.124 C 279.802 215.093,279.142 215.068,277.583 215.068 C 276.025 215.068,275.410 215.094,276.217 215.124 M237.698 215.291 C 238.862 215.320,240.812 215.320,242.032 215.291 C 243.252 215.263,242.300 215.239,239.917 215.239 C 237.533 215.239,236.535 215.263,237.698 215.291 M257.042 215.292 C 259.677 215.317,263.990 215.317,266.625 215.292 C 269.260 215.266,267.104 215.245,261.833 215.245 C 256.563 215.245,254.406 215.266,257.042 215.292 M159.333 215.854 C 158.752 216.363,158.752 216.364,159.287 216.008 C 159.582 215.812,159.867 215.580,159.921 215.492 C 160.082 215.232,159.949 215.314,159.333 215.854 M299.872 222.719 C 299.832 230.305,299.847 230.489,300.545 230.852 C 300.897 231.035,300.894 231.021,300.500 230.593 L 300.083 230.140 299.997 222.778 L 299.910 215.417 299.872 222.719 M156.750 217.267 L 155.750 217.490 156.667 217.402 C 157.171 217.353,157.655 217.242,157.742 217.156 C 157.829 217.070,157.866 217.010,157.825 217.021 C 157.784 217.033,157.300 217.143,156.750 217.267 M152.740 218.875 L 152.250 219.417 152.792 218.927 C 153.090 218.658,153.333 218.414,153.333 218.385 C 153.333 218.257,153.196 218.370,152.740 218.875 M164.069 219.265 L 163.417 219.864 164.125 219.334 C 164.757 218.862,164.948 218.667,164.778 218.667 C 164.747 218.667,164.428 218.936,164.069 219.265 M161.917 220.937 C 161.617 221.192,161.556 221.294,161.764 221.191 C 162.069 221.039,162.642 220.490,162.479 220.506 C 162.445 220.509,162.192 220.703,161.917 220.937 M169.750 221.833 C 170.479 222.567,171.113 223.167,171.159 223.167 C 171.205 223.167,170.646 222.567,169.917 221.833 C 169.188 221.100,168.554 220.500,168.508 220.500 C 168.462 220.500,169.021 221.100,169.750 221.833 M84.723 222.167 C 84.723 222.854,84.752 223.135,84.788 222.792 C 84.824 222.448,84.824 221.885,84.788 221.542 C 84.752 221.198,84.723 221.479,84.723 222.167 M162.096 222.833 C 162.157 223.063,162.276 223.362,162.361 223.500 C 162.469 223.674,162.482 223.623,162.404 223.333 C 162.343 223.104,162.224 222.804,162.139 222.667 C 162.031 222.493,162.018 222.544,162.096 222.833 M171.500 223.719 C 171.500 223.748,171.744 223.991,172.042 224.260 L 172.583 224.750 172.094 224.208 C 171.638 223.703,171.500 223.590,171.500 223.719 M180.909 224.708 L 180.250 225.417 180.958 224.758 C 181.617 224.145,181.743 224.000,181.617 224.000 C 181.590 224.000,181.271 224.319,180.909 224.708 M178.833 226.750 C 178.428 227.162,178.135 227.500,178.181 227.500 C 178.226 227.500,178.595 227.162,179.000 226.750 C 179.405 226.338,179.699 226.000,179.653 226.000 C 179.607 226.000,179.238 226.338,178.833 226.750 M164.096 228.167 C 164.157 228.396,164.276 228.696,164.361 228.833 C 164.469 229.007,164.482 228.956,164.404 228.667 C 164.343 228.438,164.224 228.137,164.139 228.000 C 164.031 227.826,164.018 227.877,164.096 228.167 M303.863 228.833 C 303.819 229.919,303.373 230.708,302.667 230.949 C 302.346 231.058,302.211 231.152,302.367 231.157 C 303.351 231.190,304.058 230.173,303.956 228.872 L 303.893 228.083 303.863 228.833 M157.826 229.042 C 158.517 229.778,158.667 229.910,158.667 229.785 C 158.667 229.758,158.310 229.402,157.875 228.993 L 157.083 228.250 157.826 229.042 M159.667 231.083 C 160.257 231.679,160.778 232.167,160.824 232.167 C 160.870 232.167,160.424 231.679,159.833 231.083 C 159.243 230.487,158.722 230.000,158.676 230.000 C 158.630 230.000,159.076 230.487,159.667 231.083 M161.750 233.333 C 162.294 233.883,162.777 234.333,162.823 234.333 C 162.869 234.333,162.461 233.883,161.917 233.333 C 161.372 232.783,160.890 232.333,160.844 232.333 C 160.798 232.333,161.206 232.783,161.750 233.333 M165.776 232.667 C 165.965 233.417,166.355 234.334,166.243 233.768 C 166.191 233.504,166.041 233.054,165.909 232.768 C 165.729 232.378,165.696 232.353,165.776 232.667 M128.708 232.619 C 128.960 232.658,129.373 232.658,129.625 232.619 C 129.877 232.581,129.671 232.550,129.167 232.550 C 128.662 232.550,128.456 232.581,128.708 232.619 M220.125 234.451 C 220.331 234.491,220.669 234.491,220.875 234.451 C 221.081 234.411,220.912 234.379,220.500 234.379 C 220.088 234.379,219.919 234.411,220.125 234.451 M163.703 235.375 C 164.077 235.740,164.315 235.829,164.878 235.811 L 165.583 235.789 164.798 235.679 C 164.366 235.619,163.837 235.422,163.623 235.243 C 163.409 235.064,163.445 235.123,163.703 235.375 M166.180 235.113 C 166.173 235.312,166.035 235.510,165.875 235.552 C 165.602 235.623,165.602 235.629,165.880 235.647 C 166.203 235.668,166.416 235.304,166.279 234.964 C 166.232 234.846,166.187 234.913,166.180 235.113 M232.577 235.835 C 233.123 236.010,233.596 236.126,233.627 236.095 C 233.711 236.011,232.153 235.498,231.845 235.509 C 231.701 235.514,232.030 235.661,232.577 235.835 M224.849 235.833 C 224.842 235.971,224.915 236.372,225.014 236.726 C 225.173 237.299,225.151 237.416,224.809 237.809 L 224.426 238.250 224.890 237.820 L 225.353 237.389 225.108 236.486 C 224.974 235.990,224.857 235.696,224.849 235.833 M235.833 237.244 C 235.833 237.290,236.208 237.518,236.667 237.750 C 237.125 237.982,237.500 238.135,237.500 238.089 C 237.500 238.043,237.125 237.816,236.667 237.583 C 236.208 237.351,235.833 237.199,235.833 237.244 M241.042 239.453 C 241.294 239.491,241.706 239.491,241.958 239.453 C 242.210 239.415,242.004 239.383,241.500 239.383 C 240.996 239.383,240.790 239.415,241.042 239.453 M223.104 239.756 C 223.047 239.905,223.009 240.265,223.021 240.555 C 223.038 240.995,223.063 240.957,223.166 240.333 C 223.299 239.536,223.275 239.312,223.104 239.756 M245.186 242.029 C 245.174 242.303,245.054 242.505,244.875 242.552 C 244.602 242.623,244.602 242.629,244.880 242.647 C 245.218 242.669,245.398 242.329,245.283 241.885 C 245.231 241.682,245.199 241.730,245.186 242.029 M231.127 243.618 C 231.334 243.658,231.634 243.656,231.794 243.615 C 231.953 243.573,231.783 243.540,231.417 243.542 C 231.050 243.544,230.920 243.578,231.127 243.618 M237.794 243.618 C 238.001 243.658,238.301 243.656,238.460 243.615 C 238.620 243.573,238.450 243.540,238.083 243.542 C 237.717 243.544,237.586 243.578,237.794 243.618 " stroke="none" fill="#98d3d7" fill-rule="evenodd"></path><path id="path4" d="M210.333 97.000 C 209.939 97.126,209.945 97.134,210.458 97.150 C 210.756 97.159,211.000 97.092,211.000 97.000 C 211.000 96.812,210.921 96.812,210.333 97.000 M208.589 97.683 C 208.042 97.960,206.880 98.696,206.006 99.320 C 203.379 101.193,201.643 102.000,200.242 102.000 C 199.632 102.000,198.828 102.559,198.845 102.970 C 198.853 103.185,198.897 103.166,199.031 102.887 C 199.241 102.453,199.802 102.219,200.883 102.116 C 201.798 102.028,204.514 100.765,205.367 100.031 C 206.082 99.415,207.600 98.423,208.890 97.728 C 210.172 97.037,209.936 97.002,208.589 97.683 M198.745 103.917 C 198.792 104.283,199.016 105.033,199.244 105.583 C 200.070 107.575,199.795 107.961,197.494 108.042 L 195.917 108.097 197.599 108.132 C 199.915 108.180,200.366 107.560,199.475 105.555 C 199.278 105.112,199.014 104.412,198.889 104.000 L 198.661 103.250 198.745 103.917 M186.542 111.621 C 186.885 111.657,187.448 111.657,187.792 111.621 C 188.135 111.585,187.854 111.556,187.167 111.556 C 186.479 111.556,186.198 111.585,186.542 111.621 M191.624 112.162 C 191.921 112.233,192.270 112.379,192.399 112.486 C 192.898 112.899,193.844 113.036,196.417 113.067 C 198.746 113.095,199.184 113.144,199.877 113.458 C 200.784 113.868,200.718 113.735,201.087 115.885 C 201.242 116.785,201.399 117.490,201.437 117.452 C 201.475 117.414,201.374 116.586,201.212 115.612 L 200.918 113.842 200.084 113.383 C 199.288 112.945,199.116 112.919,196.333 112.830 C 193.758 112.746,193.334 112.692,192.715 112.368 C 192.329 112.165,191.804 112.008,191.548 112.017 C 191.094 112.034,191.096 112.037,191.624 112.162 M182.892 114.282 C 182.751 114.621,182.603 115.165,182.564 115.491 C 182.512 115.922,182.562 115.843,182.745 115.200 C 182.884 114.713,183.076 114.170,183.171 113.991 C 183.267 113.813,183.301 113.667,183.247 113.667 C 183.194 113.667,183.034 113.944,182.892 114.282 M206.000 116.052 C 206.000 116.081,206.244 116.325,206.542 116.594 L 207.083 117.083 206.594 116.542 C 206.138 116.037,206.000 115.923,206.000 116.052 M182.589 117.812 C 182.637 118.212,182.792 118.737,182.932 118.978 C 183.073 119.219,183.135 119.267,183.071 119.083 C 183.007 118.900,182.853 118.375,182.728 117.917 L 182.500 117.083 182.589 117.812 M208.417 118.500 C 208.775 118.867,209.105 119.167,209.151 119.167 C 209.197 119.167,208.941 118.867,208.583 118.500 C 208.225 118.133,207.895 117.833,207.849 117.833 C 207.803 117.833,208.059 118.133,208.417 118.500 M206.042 118.750 C 206.044 119.117,206.078 119.247,206.118 119.040 C 206.158 118.832,206.156 118.532,206.115 118.373 C 206.073 118.214,206.040 118.383,206.042 118.750 M206.205 120.000 C 206.205 120.321,206.240 120.452,206.282 120.292 C 206.323 120.131,206.323 119.869,206.282 119.708 C 206.240 119.548,206.205 119.679,206.205 120.000 M184.582 121.667 C 185.372 122.591,185.383 122.601,185.202 122.250 C 185.108 122.067,184.817 121.729,184.557 121.501 L 184.083 121.085 184.582 121.667 M202.333 121.250 C 202.333 121.545,203.220 124.669,203.285 124.604 C 203.322 124.566,203.153 123.796,202.908 122.893 C 202.495 121.369,202.333 120.906,202.333 121.250 M186.106 123.417 C 186.492 124.075,186.500 124.085,186.500 123.880 C 186.500 123.783,186.346 123.527,186.157 123.310 L 185.814 122.917 186.106 123.417 M186.333 124.793 C 186.333 124.893,186.059 125.336,185.725 125.779 C 185.390 126.221,185.280 126.438,185.480 126.261 C 185.951 125.844,186.568 124.845,186.436 124.713 C 186.379 124.657,186.333 124.693,186.333 124.793 M184.801 127.042 C 184.670 127.248,184.395 127.717,184.189 128.083 C 183.748 128.868,184.229 128.257,184.801 127.306 C 185.207 126.631,185.207 126.401,184.801 127.042 M204.000 127.096 C 204.000 127.384,205.054 130.835,205.122 130.767 C 205.187 130.702,204.185 127.153,204.061 127.014 C 204.028 126.976,204.000 127.013,204.000 127.096 M208.039 128.667 C 208.039 128.896,208.097 129.308,208.167 129.583 C 208.280 130.029,208.294 130.038,208.294 129.667 C 208.294 129.438,208.237 129.025,208.167 128.750 C 208.053 128.304,208.039 128.295,208.039 128.667 M182.583 130.833 C 182.351 131.292,182.199 131.667,182.244 131.667 C 182.290 131.667,182.518 131.292,182.750 130.833 C 182.982 130.375,183.135 130.000,183.089 130.000 C 183.043 130.000,182.816 130.375,182.583 130.833 M181.031 133.925 C 180.529 134.958,180.585 135.103,181.103 134.109 C 181.334 133.664,181.494 133.272,181.460 133.237 C 181.425 133.202,181.232 133.512,181.031 133.925 M205.890 134.583 C 205.891 135.317,205.920 135.596,205.956 135.204 C 205.991 134.812,205.990 134.212,205.954 133.871 C 205.919 133.529,205.890 133.850,205.890 134.583 M206.017 136.469 C 205.999 136.874,206.659 138.563,206.785 138.437 C 206.825 138.397,206.739 138.135,206.594 137.854 C 206.449 137.574,206.264 137.060,206.182 136.714 C 206.084 136.296,206.028 136.214,206.017 136.469 M221.417 138.167 C 221.559 138.442,221.713 138.667,221.759 138.667 C 221.804 138.667,221.726 138.442,221.583 138.167 C 221.441 137.892,221.287 137.667,221.241 137.667 C 221.196 137.667,221.274 137.892,221.417 138.167 M207.062 141.667 C 207.062 142.629,207.089 143.023,207.123 142.542 C 207.157 142.060,207.157 141.273,207.123 140.792 C 207.089 140.310,207.062 140.704,207.062 141.667 M177.185 143.185 C 177.083 143.480,177.028 143.750,177.063 143.786 C 177.099 143.821,177.212 143.609,177.315 143.315 C 177.417 143.020,177.472 142.750,177.437 142.714 C 177.401 142.679,177.288 142.891,177.185 143.185 M207.764 145.417 C 207.832 145.600,207.921 148.138,207.962 151.056 L 208.038 156.362 207.477 156.973 L 206.917 157.583 207.557 157.000 L 208.197 156.417 208.135 151.083 C 208.089 147.082,208.020 145.667,207.858 145.417 L 207.641 145.083 207.764 145.417 M175.542 148.583 C 175.544 148.950,175.578 149.080,175.618 148.873 C 175.658 148.666,175.656 148.366,175.615 148.206 C 175.573 148.047,175.540 148.217,175.542 148.583 M229.917 149.667 C 230.275 150.033,230.605 150.333,230.651 150.333 C 230.697 150.333,230.441 150.033,230.083 149.667 C 229.725 149.300,229.395 149.000,229.349 149.000 C 229.303 149.000,229.559 149.300,229.917 149.667 M175.256 150.422 C 175.191 151.029,175.172 151.561,175.215 151.604 C 175.258 151.647,175.346 151.185,175.411 150.578 C 175.476 149.971,175.494 149.439,175.452 149.396 C 175.409 149.353,175.321 149.815,175.256 150.422 M232.500 152.417 C 233.091 153.012,233.611 153.500,233.657 153.500 C 233.703 153.500,233.257 153.012,232.667 152.417 C 232.076 151.821,231.555 151.333,231.510 151.333 C 231.464 151.333,231.909 151.821,232.500 152.417 M175.039 152.333 C 175.039 152.654,175.073 152.785,175.115 152.625 C 175.157 152.465,175.157 152.202,175.115 152.042 C 175.073 151.881,175.039 152.012,175.039 152.333 M174.872 153.500 C 174.872 153.821,174.906 153.952,174.948 153.792 C 174.990 153.631,174.990 153.369,174.948 153.208 C 174.906 153.048,174.872 153.179,174.872 153.500 M220.667 156.415 C 220.667 156.529,221.687 157.035,221.763 156.959 C 221.800 156.923,221.568 156.768,221.248 156.616 C 220.928 156.463,220.667 156.373,220.667 156.415 M234.917 157.781 C 233.829 158.960,233.398 159.500,233.545 159.500 C 233.579 159.500,234.225 158.825,234.982 158.000 C 235.738 157.175,236.296 156.504,236.220 156.508 C 236.145 156.512,235.558 157.085,234.917 157.781 M226.250 158.756 C 226.525 158.882,226.862 158.983,227.000 158.980 C 227.137 158.977,226.987 158.874,226.667 158.750 C 225.906 158.457,225.606 158.461,226.250 158.756 M208.019 160.028 C 208.009 160.181,207.957 160.443,207.904 160.611 C 207.813 160.901,207.818 160.901,207.999 160.620 C 208.103 160.456,208.155 160.194,208.114 160.036 C 208.046 159.778,208.037 159.778,208.019 160.028 M173.881 161.583 C 173.882 162.042,173.915 162.209,173.953 161.956 C 173.991 161.703,173.990 161.328,173.951 161.123 C 173.911 160.918,173.880 161.125,173.881 161.583 M173.723 163.667 C 173.723 164.354,173.752 164.635,173.788 164.292 C 173.824 163.948,173.824 163.385,173.788 163.042 C 173.752 162.698,173.723 162.979,173.723 163.667 M199.348 163.292 C 195.277 163.316,191.865 163.402,191.765 163.481 C 191.665 163.561,191.433 163.565,191.250 163.491 C 191.067 163.417,189.567 163.353,187.917 163.348 C 184.590 163.337,184.089 163.448,184.075 164.198 C 184.071 164.459,183.822 164.907,183.460 165.308 C 182.902 165.925,182.227 167.000,182.397 167.000 C 182.436 167.000,182.656 166.681,182.886 166.292 C 183.116 165.902,183.541 165.358,183.830 165.083 L 184.357 164.583 186.804 164.558 C 188.149 164.544,193.199 164.481,198.025 164.419 L 206.800 164.305 206.783 163.736 C 206.775 163.423,206.763 163.185,206.759 163.207 C 206.754 163.228,203.419 163.267,199.348 163.292 M173.567 167.750 C 173.568 169.217,173.593 169.794,173.624 169.034 C 173.655 168.273,173.655 167.073,173.624 166.367 C 173.593 165.661,173.567 166.283,173.567 167.750 M180.982 169.708 C 180.784 170.098,180.476 170.642,180.297 170.917 L 179.971 171.417 180.336 171.002 C 180.716 170.571,181.568 169.000,181.423 169.000 C 181.377 169.000,181.179 169.319,180.982 169.708 M173.729 171.083 L 173.750 171.750 176.738 171.796 C 178.859 171.828,179.777 171.785,179.904 171.646 C 180.036 171.503,180.024 171.485,179.859 171.578 C 179.736 171.649,178.334 171.652,176.743 171.585 L 173.852 171.465 173.780 170.941 C 173.725 170.547,173.713 170.582,173.729 171.083 " stroke="none" fill="#e5817b" fill-rule="evenodd"></path></g></svg>